<svg width="781" height="549" viewBox="0 0 781 549" fill="none" xmlns="http://www.w3.org/2000/svg">
<path d="M781 548H0L140.197 461.11H642.95L781 548Z" fill="#D0F0E4"/>
<path d="M447.783 123.219H307.274V37.9482C307.274 32.1746 311.733 27.4944 317.234 27.4944H437.823C443.324 27.4944 447.783 32.1746 447.783 37.9482V123.219Z" fill="white" stroke="#66B0F0" stroke-width="6" stroke-miterlimit="10"/>
<path d="M437.177 117.664H318.464C315.338 117.664 312.796 114.996 312.796 111.716V38.6263C312.796 35.3458 315.338 32.6776 318.464 32.6776H437.177C440.302 32.6776 442.844 35.3458 442.844 38.6263V111.738C442.844 115.018 440.302 117.664 437.177 117.664Z" fill="#66B0F0"/>
<path d="M472.413 143.23C477.789 146.904 476.539 154.1 470.184 154.1H278.768C273.412 154.1 271.579 146.511 276.83 143.033L472.413 143.23Z" fill="#66B0F0" stroke="#66B0F0" stroke-width="6" stroke-miterlimit="10"/>
<path d="M470.184 149.092H278.768C275.35 149.092 273.996 144.871 276.83 143.034L307.316 123.219H447.387L472.393 143.23C474.893 145.221 473.434 149.092 470.184 149.092Z" fill="white" stroke="#66B0F0" stroke-width="6" stroke-miterlimit="10"/>
<path d="M448.096 143.121H300.856C298.23 143.121 297.188 139.862 299.356 138.463L320.527 123.219H430.55L449.783 138.616C451.721 140.147 450.596 143.121 448.096 143.121Z" fill="white" stroke="#66B0F0" stroke-width="6" stroke-miterlimit="10"/>
<path d="M421.027 123.219L440.281 143.121" stroke="#66B0F0" stroke-width="6" stroke-miterlimit="10"/>
<path d="M410.817 123.219L427.779 143.121" stroke="#66B0F0" stroke-width="6" stroke-miterlimit="10"/>
<path d="M401.273 123.219L415.984 143.121" stroke="#66B0F0" stroke-width="6" stroke-miterlimit="10"/>
<path d="M390.604 123.219L403.044 143.121" stroke="#66B0F0" stroke-width="6" stroke-miterlimit="10"/>
<path d="M381.748 123.219L387.812 143.121" stroke="#66B0F0" stroke-width="6" stroke-miterlimit="10"/>
<path d="M329.466 123.219L310.212 143.121" stroke="#66B0F0" stroke-width="6" stroke-miterlimit="10"/>
<path d="M339.677 123.219L322.715 143.121" stroke="#66B0F0" stroke-width="6" stroke-miterlimit="10"/>
<path d="M349.22 123.219L334.509 143.121" stroke="#66B0F0" stroke-width="6" stroke-miterlimit="10"/>
<path d="M359.889 123.219L347.449 143.121" stroke="#66B0F0" stroke-width="6" stroke-miterlimit="10"/>
<path d="M368.745 123.219L362.681 143.121" stroke="#66B0F0" stroke-width="6" stroke-miterlimit="10"/>
<path d="M374.747 143.362V123.219" stroke="#66B0F0" stroke-width="6" stroke-miterlimit="10"/>
<path d="M310.212 130.655H439.865" stroke="#66B0F0" stroke-width="6" stroke-miterlimit="10"/>
<path d="M427.299 117.664H321.881L323.777 103.558C324.944 94.8757 330.883 87.7461 338.906 85.3404L364.599 79.7417H384.582L410.275 85.3404C418.318 87.7242 424.257 94.8757 425.403 103.558L427.299 117.664Z" fill="#FFCF2D"/>
<path d="M381.706 95.8598L374.101 87.7898C373.934 87.6149 373.934 87.3305 374.101 87.1775C374.267 87.0025 374.538 87.0025 374.684 87.1775L381.665 94.5914L392.5 81.71C392.646 81.535 392.917 81.5131 393.084 81.6662C393.251 81.8193 393.271 82.1036 393.126 82.2786L381.706 95.8598Z" fill="white"/>
<path d="M367.578 95.8597L356.159 82.2785C356.013 82.1035 356.013 81.8192 356.201 81.6661C356.367 81.513 356.638 81.513 356.784 81.7099L367.62 94.5913L374.601 87.1774C374.767 87.0024 375.017 87.0024 375.184 87.1774C375.351 87.3523 375.351 87.6148 375.184 87.7897L367.578 95.8597Z" fill="white"/>
<path d="M374.767 101.13C373.767 101.13 372.954 100.278 372.954 99.2278C372.954 98.178 373.767 97.3251 374.767 97.3251C375.767 97.3251 376.58 98.178 376.58 99.2278C376.58 100.278 375.767 101.13 374.767 101.13ZM374.767 98.1999C374.225 98.1999 373.788 98.6591 373.788 99.2278C373.788 99.7964 374.225 100.256 374.767 100.256C375.309 100.256 375.747 99.7964 375.747 99.2278C375.747 98.6591 375.309 98.1999 374.767 98.1999Z" fill="white"/>
<path d="M374.767 111.847C373.767 111.847 372.954 110.994 372.954 109.944C372.954 108.894 373.767 108.042 374.767 108.042C375.767 108.042 376.58 108.894 376.58 109.944C376.58 110.994 375.767 111.847 374.767 111.847ZM374.767 108.916C374.225 108.916 373.788 109.376 373.788 109.944C373.788 110.513 374.225 110.972 374.767 110.972C375.309 110.972 375.747 110.513 375.747 109.944C375.747 109.376 375.309 108.916 374.767 108.916Z" fill="white"/>
<path d="M364.474 117.205H330.425L321.339 88.9052L355.388 78.67L364.474 117.205Z" fill="white" stroke="#66B0F0" stroke-width="4" stroke-miterlimit="10"/>
<path d="M332.196 92.5793H331.55C329.904 92.5793 328.57 91.1796 328.57 89.4519V79.6322C328.57 78.9324 329.112 78.3638 329.779 78.3638H332.592C333.259 78.3638 333.8 78.9324 333.8 79.6322V90.8734C333.821 91.8138 333.092 92.5793 332.196 92.5793Z" fill="white"/>
<path d="M332.196 92.5793H331.55C329.904 92.5793 328.57 91.1796 328.57 89.4519V79.6322C328.57 78.9324 329.112 78.3638 329.779 78.3638H332.592C333.259 78.3638 333.8 78.9324 333.8 79.6322V90.8734C333.821 91.8138 333.092 92.5793 332.196 92.5793Z" stroke="#66B0F0" stroke-width="4" stroke-miterlimit="10" stroke-linecap="round"/>
<path d="M345.907 92.5791H346.553C348.199 92.5791 349.533 91.1795 349.533 89.4517V79.6321C349.533 78.9323 348.991 78.3636 348.324 78.3636H345.49C344.824 78.3636 344.282 78.9323 344.282 79.6321V90.8733C344.282 91.8137 345.011 92.5791 345.907 92.5791Z" fill="white"/>
<path d="M337.426 93.7167H335.926C334.759 93.7167 333.821 92.7326 333.821 91.5079V79.6543C333.821 78.9545 334.363 78.3859 335.03 78.3859H337.843C338.51 78.3859 339.052 78.9545 339.052 79.6543V92.0109C339.052 92.9513 338.322 93.7167 337.426 93.7167Z" fill="white"/>
<path d="M342.677 94.1538H341.427C340.114 94.1538 339.052 93.0384 339.052 91.6606V79.6321C339.052 78.9323 339.593 78.3636 340.26 78.3636H343.073C343.74 78.3636 344.282 78.9323 344.282 79.6321V92.4479C344.282 93.3883 343.552 94.1538 342.677 94.1538Z" fill="white"/>
<path d="M345.907 92.5791H346.553C348.199 92.5791 349.533 91.1795 349.533 89.4517V79.6321C349.533 78.9323 348.991 78.3636 348.324 78.3636H345.49C344.824 78.3636 344.282 78.9323 344.282 79.6321V90.8733C344.282 91.8137 345.011 92.5791 345.907 92.5791Z" stroke="#66B0F0" stroke-width="4" stroke-miterlimit="10" stroke-linecap="round"/>
<path d="M337.426 93.7167H335.926C334.759 93.7167 333.821 92.7326 333.821 91.5079V79.6543C333.821 78.9545 334.363 78.3859 335.03 78.3859H337.843C338.51 78.3859 339.052 78.9545 339.052 79.6543V92.0109C339.052 92.9513 338.322 93.7167 337.426 93.7167Z" stroke="#66B0F0" stroke-width="4" stroke-miterlimit="10" stroke-linecap="round"/>
<path d="M342.677 94.1538H341.427C340.114 94.1538 339.052 93.0384 339.052 91.6606V79.6321C339.052 78.9323 339.593 78.3636 340.26 78.3636H343.073C343.74 78.3636 344.282 78.9323 344.282 79.6321V92.4479C344.282 93.3883 343.552 94.1538 342.677 94.1538Z" stroke="#66B0F0" stroke-width="4" stroke-miterlimit="10" stroke-linecap="round"/>
<path d="M384.603 66.8821V82.8472C384.603 85.6028 380.123 87.8554 374.601 87.8554C369.079 87.8554 364.599 85.6028 364.599 82.8472V66.8821H384.603Z" fill="white"/>
<path d="M384.603 66.8821C384.603 78.9324 377.247 82.5191 370.183 81.8849C370.162 81.8849 370.142 81.8849 370.121 81.8849C366.995 81.5787 364.62 78.7794 364.62 75.4989V66.904H384.603V66.8821Z" fill="#66B0F0"/>
<path d="M389.25 62.7707V63.5799C389.25 65.3732 387.874 66.8167 386.166 66.8167H384.582L384.603 67.1885C384.603 72.3498 380.623 76.5269 375.705 76.5269H373.517C368.599 76.5269 364.619 72.3498 364.619 67.1885L364.64 66.8167H363.057C361.348 66.8167 359.973 65.3732 359.973 63.5799V62.7707C359.973 60.9774 361.348 59.534 363.057 59.534H365.078L365.307 55.5755C365.307 54.9631 365.39 54.3727 365.557 53.8259C371.517 55.3787 378.497 51.3546 380.373 50.1517C382.457 50.9828 383.936 53.0823 383.936 55.5536L384.165 59.5121H386.187C387.874 59.534 389.25 60.9774 389.25 62.7707Z" fill="white"/>
<path d="M386.312 59.5338H384.145L383.915 55.5754C383.915 53.1041 382.436 51.0046 380.352 50.1735C378.477 51.3545 371.496 55.3786 365.536 53.8477C365.37 54.3944 365.286 54.9849 365.286 55.5973L365.057 59.5557H363.703C363.703 59.5557 360.931 45.4715 363.661 42.8908C365.682 40.9881 384.186 45.1434 386.228 48.0959C387.374 49.7798 386.312 59.5338 386.312 59.5338Z" fill="#E57281"/>
<path d="M381.102 58.6811C381.04 58.6811 380.956 58.6593 380.894 58.5937C380.873 58.5718 379.519 57.4127 377.351 57.4127C377.185 57.4127 377.039 57.2596 377.039 57.0846C377.039 56.9097 377.185 56.7566 377.351 56.7566C379.748 56.7566 381.227 58.0251 381.29 58.0907C381.415 58.2 381.436 58.4187 381.331 58.5499C381.29 58.6374 381.186 58.6811 381.102 58.6811Z" fill="#66B0F0"/>
<path d="M373.184 65.4607C373.142 65.4607 373.101 65.4608 373.08 65.4389C372.913 65.3733 372.83 65.1764 372.892 65.0233C373.476 63.405 373.33 61.3711 372.517 59.5777C372.038 58.4842 371.35 57.6969 370.746 57.4782C369.412 56.9971 367.537 57.675 367.516 57.675C367.349 57.7406 367.183 57.6532 367.12 57.4782C367.058 57.3032 367.141 57.1283 367.308 57.0627C367.391 57.0408 369.391 56.3191 370.933 56.8658C371.704 57.1502 372.496 58.0468 373.059 59.3153C373.934 61.2617 374.08 63.4925 373.455 65.2858C373.434 65.3733 373.309 65.4607 373.184 65.4607Z" fill="#66B0F0"/>
<path d="M377.289 68.938C377.31 69.113 377.164 69.2661 376.997 69.288H376.976C376.81 69.288 376.685 69.1567 376.664 68.9818C376.643 68.7631 376.601 68.5444 376.539 68.3475C375.643 68.8068 374.83 68.9599 374.163 68.9599C372.85 68.9599 372.059 68.3913 372.017 68.3475C371.871 68.2382 371.85 68.0414 371.934 67.8883C372.038 67.7352 372.225 67.7133 372.371 67.8008C372.413 67.8227 373.08 68.3038 374.163 68.3038C374.747 68.3038 375.455 68.1726 376.268 67.7571C376.143 67.5384 376.018 67.4071 376.018 67.4071C375.893 67.2759 375.914 67.0572 376.039 66.9479C376.164 66.8385 376.372 66.8385 376.476 66.9697C376.518 67.0354 377.226 67.8664 377.289 68.938Z" fill="#66B0F0"/>
<path d="M378.414 62.688C378.701 62.6692 378.905 62.1654 378.869 61.5626C378.833 60.9598 378.572 60.4864 378.284 60.5052C377.997 60.524 377.793 61.0278 377.829 61.6306C377.865 62.2334 378.127 62.7068 378.414 62.688Z" fill="#66B0F0"/>
<path d="M369.907 62.6005C370.171 62.5832 370.358 62.1196 370.325 61.5651C370.293 61.0105 370.052 60.575 369.787 60.5922C369.523 60.6095 369.336 61.0731 369.369 61.6277C369.402 62.1822 369.643 62.6177 369.907 62.6005Z" fill="#66B0F0"/>
<path d="M364.078 63.8204C363.911 63.8204 363.765 63.6673 363.765 63.4923C363.765 62.5301 363.015 61.7646 362.119 61.7646C361.952 61.7646 361.806 61.6115 361.806 61.4366C361.806 61.2616 361.952 61.1085 362.119 61.1085C363.369 61.1085 364.39 62.1801 364.39 63.4923C364.39 63.6892 364.244 63.8204 364.078 63.8204Z" fill="#66B0F0"/>
<path d="M385.041 63.8204C384.874 63.8204 384.728 63.6673 384.728 63.4923C384.728 62.1801 385.749 61.1085 386.999 61.1085C387.166 61.1085 387.312 61.2616 387.312 61.4366C387.312 61.6115 387.166 61.7646 386.999 61.7646C386.082 61.7646 385.353 62.5519 385.353 63.4923C385.353 63.6892 385.228 63.8204 385.041 63.8204Z" fill="#66B0F0"/>
<path d="M762.246 548L672.998 238.277C671.226 232.11 665.788 227.889 659.641 227.889H117.963C111.753 227.889 106.293 232.197 104.564 238.474L19.3999 548" stroke="#66B0F0" stroke-width="6" stroke-miterlimit="10"/>
<path d="M266.348 123.219H503.274" stroke="#66B0F0" stroke-width="6" stroke-miterlimit="10"/>
<path d="M348.574 170.283H404.544V220.737H348.574C348.574 220.737 348.574 168.381 348.574 170.283Z" fill="#FFCF2D"/>
<path d="M557.869 404.708L531.843 336.692H573.747L557.869 404.708Z" fill="#9A3B82"/>
<path d="M486.458 245.91C492.042 234.822 503.024 227.889 514.964 227.889H547.2L569.1 245.91H486.458Z" fill="#9A3B82"/>
<path d="M608.671 325.539H527.466L558.035 403.418C555.91 399.787 543.178 403.571 529.696 412.253C516.381 420.826 507.379 431.149 509.213 434.91L443.323 314.582C426.236 284.226 447.074 245.91 480.665 245.91H662.641L663.037 247.222C674.915 285.932 647.409 325.539 608.671 325.539Z" fill="#3FB1B5"/>
<path d="M665.788 268.239C665.496 275.347 663.996 282.214 661.453 288.578L566.016 245.932H660.745L662.954 252.712C664.496 256.779 665.35 262.488 665.788 268.239Z" fill="#E6E6E6"/>
<path d="M558.056 403.418C560.182 407.048 550.888 416.955 537.427 425.638C523.945 434.32 511.421 438.672 509.296 435.042C507.17 431.411 516.235 421.154 529.717 412.472C543.178 403.789 555.91 399.787 558.056 403.418Z" fill="#66B0F0"/>
<path d="M528.154 412.516L468.891 302.553C464.245 293.849 470.225 283.089 479.748 283.089H595.168C610.713 283.089 622.32 268.064 619.111 252.099" stroke="white" stroke-width="6" stroke-miterlimit="10" stroke-linecap="round"/>
<path d="M508.608 435.282C506.483 431.652 515.672 420.104 529.717 411.509C545.491 401.865 555.702 399 558.744 404.117" stroke="white" stroke-width="6" stroke-miterlimit="10" stroke-linecap="round"/>
<path d="M559.202 404.599L520.486 307.715" stroke="white" stroke-width="6" stroke-miterlimit="10" stroke-linecap="round"/>
<path d="M478.393 245.188H572.851" stroke="white" stroke-width="6" stroke-miterlimit="10"/>
<path d="M531.821 440.05L526.195 432.002L518.444 420.936C521.611 418.136 525.424 415.227 529.696 412.472C538.198 407.004 546.387 403.374 551.826 402.368L555.597 410.263L560.307 420.104C556.973 432.548 531.821 440.05 531.821 440.05Z" fill="#E57281"/>
<path d="M555.619 410.263C552.118 414.746 545.533 420.411 537.427 425.638C533.531 428.153 529.717 430.296 526.216 432.002L518.465 420.936C521.632 418.136 525.445 415.228 529.717 412.472C538.219 407.004 546.408 403.374 551.847 402.368L555.619 410.263Z" fill="#9A3B82"/>
<path d="M586.062 463.473L528.883 506.578C524.028 510.121 516.485 513.074 517.485 500.258C518.881 482.587 522.611 456.299 531.821 440.028C532.217 439.919 556.973 432.417 560.307 420.083L586.375 439.525C593.876 445.649 593.71 457.59 586.062 463.473Z" fill="white" stroke="#FFCF2D" stroke-width="6" stroke-miterlimit="10"/>
<path d="M529.175 445.736C533.718 446.633 559.223 437.141 563.182 422.51" stroke="#FFCF2D" stroke-width="6" stroke-miterlimit="10" stroke-linecap="round"/>
<path d="M523.028 502.139C523.028 502.139 560.348 447.726 586.896 450.788C615.798 454.09 499.398 533.872 523.028 502.139Z" fill="#FFCF2D"/>
<path d="M521.965 509.553C519.069 509.749 516.006 506.206 520.236 500.52C520.236 500.52 559.077 444.096 586.729 447.289C591.001 447.77 592.439 451.422 591.438 454.571" stroke="#FFCF2D" stroke-width="6" stroke-miterlimit="10" stroke-linecap="round"/>
<path d="M665.996 272.679C652.785 269.398 619.903 260.76 582.395 251.662C564.766 247.397 550.013 234.8 542.407 217.566L508.254 140.015L528.925 105.636C535.28 95.0507 546.116 88.3147 558.014 87.5493L578.352 86.2371C598.857 84.9249 615.318 98.3531 621.57 118.889L662.933 245.91C667.475 257.807 665.996 272.679 665.996 272.679Z" fill="white" stroke="#FE5244" stroke-width="6" stroke-miterlimit="10"/>
<path d="M526.237 144.367C526.237 144.367 537.114 162.301 561.89 166.259" stroke="#FE5244" stroke-width="6" stroke-miterlimit="10"/>
<path d="M540.907 111.737C539.782 110.469 537.802 110.819 537.114 112.371C536.343 114.121 537.739 116.067 539.552 115.783C541.407 115.499 542.178 113.159 540.907 111.737Z" fill="#FFCF2D" stroke="#FE5244" stroke-width="6" stroke-miterlimit="10" stroke-linejoin="round"/>
<path d="M592.814 149.113C591.688 147.845 589.709 148.194 589.021 149.747C588.25 151.497 589.646 153.443 591.459 153.159C593.314 152.875 594.085 150.535 592.814 149.113Z" fill="#FFCF2D" stroke="#FE5244" stroke-width="6" stroke-miterlimit="10" stroke-linejoin="round"/>
<path d="M609.255 164.422C608.129 163.154 606.15 163.504 605.462 165.056C604.691 166.806 606.087 168.752 607.9 168.468C609.734 168.206 610.505 165.865 609.255 164.422Z" fill="#FFCF2D" stroke="#FE5244" stroke-width="6" stroke-miterlimit="10" stroke-linejoin="round"/>
<path d="M640.782 251.049C639.657 249.781 637.677 250.131 636.99 251.683C636.219 253.433 637.615 255.379 639.428 255.095C641.262 254.811 642.033 252.493 640.782 251.049Z" fill="#FFCF2D" stroke="#FE5244" stroke-width="6" stroke-miterlimit="10" stroke-linejoin="round"/>
<path d="M623.133 209.649C622.007 208.381 620.028 208.731 619.34 210.283C618.569 212.033 619.965 213.979 621.778 213.695C623.633 213.411 624.404 211.071 623.133 209.649Z" fill="#FFCF2D" stroke="#FE5244" stroke-width="6" stroke-miterlimit="10" stroke-linejoin="round"/>
<path d="M630.447 179.862C628.821 180.081 627.925 181.983 628.738 183.471C629.655 185.155 631.968 185.089 632.801 183.361C633.656 181.612 632.28 179.6 630.447 179.862Z" fill="#FFCF2D" stroke="#FE5244" stroke-width="6" stroke-miterlimit="10" stroke-linejoin="round"/>
<path d="M643.762 224.04C642.137 224.258 641.241 226.161 642.053 227.648C642.97 229.332 645.283 229.267 646.117 227.539C646.971 225.789 645.617 223.777 643.762 224.04Z" fill="#FFCF2D" stroke="#FE5244" stroke-width="6" stroke-miterlimit="10" stroke-linejoin="round"/>
<path d="M588.542 176.385C587.417 175.116 585.437 175.466 584.75 177.019C583.979 178.769 585.375 180.715 587.188 180.431C589.021 180.147 589.792 177.828 588.542 176.385Z" fill="#FFCF2D" stroke="#FE5244" stroke-width="6" stroke-miterlimit="10" stroke-linejoin="round"/>
<path d="M577.06 201.164C575.935 199.895 573.955 200.245 573.268 201.798C572.497 203.547 573.893 205.494 575.706 205.21C577.56 204.925 578.331 202.585 577.06 201.164Z" fill="#FFCF2D" stroke="#FE5244" stroke-width="6" stroke-miterlimit="10" stroke-linejoin="round"/>
<path d="M556.514 192.503C557.723 191.322 557.39 189.245 555.91 188.523C554.243 187.714 552.388 189.179 552.659 191.082C552.93 193.006 555.139 193.815 556.514 192.503Z" fill="#FFCF2D" stroke="#FE5244" stroke-width="6" stroke-miterlimit="10" stroke-linejoin="round"/>
<path d="M574.747 235.15C575.956 233.969 575.622 231.891 574.143 231.169C572.476 230.36 570.621 231.825 570.892 233.728C571.163 235.674 573.393 236.484 574.747 235.15Z" fill="#FFCF2D" stroke="#FE5244" stroke-width="6" stroke-miterlimit="10" stroke-linejoin="round"/>
<path d="M605.441 198.561C606.65 197.38 606.317 195.302 604.837 194.581C603.17 193.772 601.315 195.237 601.586 197.14C601.857 199.064 604.087 199.895 605.441 198.561Z" fill="#FFCF2D" stroke="#FE5244" stroke-width="6" stroke-miterlimit="10" stroke-linejoin="round"/>
<path d="M615.923 244.357C617.131 243.176 616.798 241.098 615.318 240.376C613.651 239.567 611.797 241.033 612.068 242.935C612.318 244.882 614.547 245.691 615.923 244.357Z" fill="#FFCF2D" stroke="#FE5244" stroke-width="6" stroke-miterlimit="10" stroke-linejoin="round"/>
<path d="M553.076 151.606C551.951 150.338 549.971 150.688 549.283 152.24C548.512 153.99 549.909 155.937 551.721 155.652C553.576 155.368 554.347 153.028 553.076 151.606Z" fill="#FFCF2D" stroke="#FE5244" stroke-width="6" stroke-miterlimit="10" stroke-linejoin="round"/>
<path d="M556.806 94.8754C555.681 93.607 553.701 93.9569 553.013 95.5097C552.242 97.2593 553.639 99.2057 555.452 98.9214C557.306 98.6371 558.077 96.297 556.806 94.8754Z" fill="#FFCF2D" stroke="#FE5244" stroke-width="6" stroke-miterlimit="10" stroke-linejoin="round"/>
<path d="M592.814 94.8754C591.688 93.607 589.709 93.9569 589.021 95.5097C588.25 97.2593 589.646 99.2057 591.459 98.9214C593.314 98.6371 594.085 96.297 592.814 94.8754Z" fill="#FFCF2D" stroke="#FE5244" stroke-width="6" stroke-miterlimit="10" stroke-linejoin="round"/>
<path d="M592.876 119.37C591.355 120.004 590.917 122.06 592.064 123.307C593.335 124.684 595.564 124.05 595.981 122.169C596.398 120.267 594.606 118.648 592.876 119.37Z" fill="#FFCF2D" stroke="#FE5244" stroke-width="6" stroke-miterlimit="10" stroke-linejoin="round"/>
<path d="M572.414 105.417C570.83 105.898 570.226 107.888 571.226 109.244C572.372 110.753 574.643 110.338 575.227 108.522C575.831 106.663 574.185 104.87 572.414 105.417Z" fill="#FFCF2D" stroke="#FE5244" stroke-width="6" stroke-miterlimit="10" stroke-linejoin="round"/>
<path d="M569.392 165.997C567.767 166.194 566.85 168.074 567.642 169.583C568.538 171.267 570.851 171.246 571.705 169.54C572.58 167.812 571.247 165.778 569.392 165.997Z" fill="#FFCF2D" stroke="#FE5244" stroke-width="6" stroke-miterlimit="10" stroke-linejoin="round"/>
<path d="M551.534 211.552C549.909 211.749 548.992 213.63 549.784 215.139C550.68 216.823 552.993 216.801 553.847 215.095C554.722 213.367 553.389 211.333 551.534 211.552Z" fill="#FFCF2D" stroke="#FE5244" stroke-width="6" stroke-miterlimit="10" stroke-linejoin="round"/>
<path d="M557.535 123.481C555.952 123.963 555.347 125.953 556.348 127.309C557.494 128.818 559.765 128.402 560.349 126.587C560.953 124.75 559.327 122.957 557.535 123.481Z" fill="#FFCF2D" stroke="#FE5244" stroke-width="6" stroke-miterlimit="10" stroke-linejoin="round"/>
<path d="M574.789 135.729C573.205 136.21 572.601 138.2 573.601 139.556C574.747 141.065 577.019 140.649 577.602 138.834C578.206 136.975 576.581 135.182 574.789 135.729Z" fill="#FFCF2D" stroke="#FE5244" stroke-width="6" stroke-miterlimit="10" stroke-linejoin="round"/>
<path d="M537.427 135.204C538.469 133.87 537.906 131.858 536.323 131.355C534.572 130.786 532.905 132.492 533.426 134.329C533.947 136.21 536.239 136.713 537.427 135.204Z" fill="#FFCF2D" stroke="#FE5244" stroke-width="6" stroke-miterlimit="10" stroke-linejoin="round"/>
<path d="M616.423 135.269C617.465 133.935 616.902 131.923 615.319 131.42C613.568 130.852 611.901 132.557 612.422 134.395C612.922 136.275 615.235 136.778 616.423 135.269Z" fill="#FFCF2D" stroke="#FE5244" stroke-width="6" stroke-miterlimit="10" stroke-linejoin="round"/>
<path d="M596.377 223.93C597.419 222.596 596.856 220.584 595.273 220.081C593.522 219.513 591.855 221.218 592.376 223.055C592.876 224.914 595.189 225.417 596.377 223.93Z" fill="#FFCF2D" stroke="#FE5244" stroke-width="6" stroke-miterlimit="10" stroke-linejoin="round"/>
<path d="M579.748 85.5156C579.29 85.5375 578.831 85.5593 578.352 85.5812L558.015 86.8934C552.826 87.2215 547.867 88.6868 543.366 91.1143L537.114 71.4751L564.974 50.0425L579.748 85.5156Z" fill="#E57281"/>
<path d="M543.282 90.8079C549.075 88.0523 553.701 83.1534 556.327 77.0736L566.454 53.5633L564.974 50.0204L537.114 71.453L543.282 90.8079Z" fill="#9A3B82"/>
<path d="M566.766 52.0107C566.766 54.0446 565.975 55.8817 564.704 57.2157C563.432 58.5498 561.682 59.3809 559.744 59.3809H553.618C551.201 69.2442 541.845 76.002 531.78 74.1431L527.175 73.2902C522.132 72.3498 518.694 67.4071 519.402 62.0927L524.799 33.7274C525.737 27.6694 531.676 23.9734 537.198 26.051L546.137 29.8126C550.971 31.5622 554.222 36.3299 554.222 41.688V44.4218L559.744 44.6405C563.62 44.6405 566.766 47.9429 566.766 52.0107Z" fill="#E57281"/>
<path d="M556.389 53.4321C556.389 50.6109 558.556 48.3364 561.244 48.3364" stroke="#9A3B82" stroke-width="5" stroke-miterlimit="10" stroke-linecap="round"/>
<path d="M527.8 39.6979C527.8 39.6979 532.176 39.6979 535.301 44.0938" stroke="#9A3B82" stroke-width="5" stroke-miterlimit="10" stroke-linecap="round"/>
<path d="M530.708 47.8832C530.928 46.6116 530.648 45.4933 530.082 45.3853C529.516 45.2773 528.878 46.2206 528.658 47.4922C528.438 48.7637 528.718 49.8821 529.284 49.9901C529.851 50.0981 530.488 49.1548 530.708 47.8832Z" fill="#9A3B82"/>
<path d="M559.744 44.6403C563.62 44.6403 566.766 47.9427 566.766 52.0105C566.766 52.0324 566.766 52.0761 566.766 52.1199C569.892 47.0679 577.56 34.2084 577.56 29.8562C577.56 24.0169 570.621 18.1777 563.432 20.8458C563.912 20.474 564.412 20.0803 564.933 19.6648C567.704 17.3903 569.163 15.6845 569.392 14.4598C569.475 14.0224 569.413 13.6287 569.204 13.3225C568.371 12.0759 567.454 11.5292 566.475 11.7041C565.037 11.9447 563.557 13.8037 562.078 17.2154C561.411 18.7681 560.89 20.2991 560.598 21.2395C560.015 17.5872 557.202 5.49307 545.116 7.35202C540.948 7.98625 538.99 9.80146 538.448 11.7916C534.989 8.94853 530.363 6.71779 526.529 8.83918C519.902 12.4915 520.715 18.4838 524.549 22.7266C520.923 22.661 518.381 23.7764 518.381 26.9913C518.381 29.9437 521.278 31.3653 525.258 31.9339C529.238 32.5025 534.343 32.1963 538.76 31.6714C541.907 31.2996 544.741 30.8404 546.554 30.5123C545.345 33.1149 544.866 35.3456 544.97 37.2264C545.158 41.1193 547.846 43.4156 551.638 44.2248C552.451 44.3998 553.326 44.5091 554.222 44.5529L559.744 44.6403ZM566.6 12.5789C566.662 12.5571 566.725 12.5571 566.808 12.5571C567.392 12.5571 567.954 12.9945 568.517 13.8255C568.558 13.913 568.621 14.0442 568.579 14.2848C568.246 16.0563 563.974 19.4242 561.494 21.1957C562.474 18.1777 564.537 12.9507 566.6 12.5789Z" fill="#FFCF2D"/>
<path d="M543.115 19.0525C541.678 19.0525 540.219 18.2433 539.156 16.8217C537.969 15.2471 537.573 13.3007 538.073 11.6167C538.135 11.398 538.344 11.2668 538.552 11.3105C538.635 11.3105 538.719 11.3324 538.781 11.398C541.928 13.7599 544.449 17.1279 544.074 18.462C543.991 18.8119 543.72 19.0306 543.366 19.0525C543.282 19.0525 543.199 19.0525 543.115 19.0525ZM538.74 12.4477C538.552 13.7162 538.927 15.1159 539.802 16.275C540.74 17.5216 542.032 18.2433 543.282 18.1558C543.324 17.5872 541.928 14.9847 538.74 12.4477Z" fill="white"/>
<path d="M501.982 212.164H368.62C365.328 212.164 363.348 208.359 365.099 205.45L382.852 176.188C385.165 172.383 389.145 170.086 393.438 170.086H483.707L501.982 212.164Z" fill="#E57281"/>
<path d="M396.376 170.108L407.003 151.738C407.628 150.644 408.774 149.966 409.983 149.966C412.713 149.966 414.38 153.094 412.963 155.543L404.524 170.108H396.376Z" fill="#FE5244"/>
<path d="M501.982 212.164H471.996C471.934 212.099 471.85 212.011 471.788 211.946C464.495 204.072 461.39 192.131 465.495 180.628L469.767 170.086H483.707L501.982 212.164Z" fill="#9A3B82"/>
<path d="M387.457 192.525H370.745C369.62 192.525 368.578 193.159 368.016 194.187L366.245 197.424C365.057 199.611 366.557 202.345 368.974 202.345H382.415C384.748 202.345 386.916 201.076 388.145 198.977L389.583 196.505C390.583 194.756 389.395 192.525 387.457 192.525Z" fill="#E57281"/>
<path d="M383.144 202.345H366.432C365.307 202.345 364.265 202.979 363.702 204.007L361.931 207.244C360.743 209.431 362.244 212.164 364.661 212.164H378.101C380.435 212.164 382.602 210.896 383.832 208.796L385.269 206.325C386.29 204.575 385.082 202.345 383.144 202.345Z" fill="#E57281"/>
<path d="M392.229 182.574H375.517C374.392 182.574 373.35 183.209 372.787 184.236L371.016 187.473C369.828 189.66 371.329 192.394 373.746 192.394H387.186C389.52 192.394 391.687 191.125 392.917 189.026L394.355 186.555C395.376 184.805 394.167 182.574 392.229 182.574Z" fill="#E57281"/>
<path d="M387.457 192.525H370.745C369.62 192.525 368.578 193.159 368.016 194.187L366.245 197.424C365.057 199.611 366.557 202.345 368.974 202.345H382.415C384.748 202.345 386.916 201.076 388.145 198.977L389.583 196.505C390.583 194.756 389.395 192.525 387.457 192.525Z" stroke="#9A3B82" stroke-width="5" stroke-miterlimit="10" stroke-linecap="round"/>
<path d="M383.144 202.345H366.432C365.307 202.345 364.265 202.979 363.702 204.007L361.931 207.244C360.743 209.431 362.244 212.164 364.661 212.164H378.101C380.435 212.164 382.602 210.896 383.832 208.796L385.269 206.325C386.29 204.575 385.082 202.345 383.144 202.345Z" stroke="#9A3B82" stroke-width="5" stroke-miterlimit="10" stroke-linecap="round"/>
<path d="M392.229 182.574H375.517C374.392 182.574 373.35 183.209 372.787 184.236L371.016 187.473C369.828 189.66 371.329 192.394 373.746 192.394H387.186C389.52 192.394 391.687 191.125 392.917 189.026L394.355 186.555C395.376 184.805 394.167 182.574 392.229 182.574Z" stroke="#9A3B82" stroke-width="5" stroke-miterlimit="10" stroke-linecap="round"/>
<path d="M416.422 197.205C411.4 197.205 406.566 195.303 402.773 191.825L396.438 186.008H390.604L389.104 187.692C386.415 190.71 383.102 192.438 379.164 192.438H376.372C374.913 192.438 374.017 190.732 374.809 189.441L381.831 177.894H416.443V197.205H416.422Z" fill="#E57281"/>
<path d="M381.831 177.894L374.809 189.441C374.017 190.732 374.913 192.438 376.372 192.438H379.164C383.102 192.438 386.415 190.732 389.104 187.692L390.604 186.008H396.438L402.773 191.825C406.545 195.281 411.4 197.205 416.422 197.205" stroke="#9A3B82" stroke-width="5" stroke-miterlimit="10" stroke-linecap="round"/>
<path d="M557.119 171.268L525.299 208.578C518.61 216.429 509.046 220.912 499.002 220.912C479.164 220.912 465.432 200.136 472.392 180.628L510.192 87.418L497.418 79.9166C495.605 78.4294 494.73 76.0019 495.126 73.6399L497.293 58.3091C497.96 54.8973 501.273 52.2292 504.503 51.4419L519.465 47.8989C520.736 47.5928 521.903 48.73 521.694 50.0641L519.527 61.8957C518.673 67.6694 522.382 72.6558 527.883 73.6399C532.384 74.4491 535.552 79.1949 535.135 83.9626L524.945 150.666C524.924 150.71 535.364 167.79 557.119 171.268Z" fill="#E57281"/>
<path d="M532.718 99.8182L520.423 183.602" stroke="#9A3B82" stroke-width="5" stroke-miterlimit="10" stroke-linecap="round"/>
<path d="M507.233 59.4243L507.066 64.8481C507.004 67.0788 508.275 69.0471 510.109 69.5939L529.258 73.6617" stroke="#9A3B82" stroke-width="5" stroke-miterlimit="10" stroke-linecap="round"/>
<path d="M542.282 75.4112L526.966 73.268C521.924 72.3276 518.485 67.385 519.194 62.0705L521.173 50.1951C521.361 49.0798 520.402 48.1394 519.361 48.4018L503.732 52.2291" stroke="#9A3B82" stroke-width="5" stroke-miterlimit="10" stroke-linecap="round"/>
<path d="M533.822 198.517L575.248 150.141" stroke="#FE5244" stroke-width="6" stroke-miterlimit="10"/>
<path d="M510.629 87.4397H517.943" stroke="#9A3B82" stroke-width="5" stroke-miterlimit="10" stroke-linecap="round"/>
<path d="M507.254 60.8676V62.6172C507.254 64.6949 508.692 66.4008 510.463 66.4008H512.755C513.755 66.4008 514.547 65.4604 514.547 64.2794L514.693 52.8632C514.714 51.0918 512.922 49.9983 511.463 50.3701" stroke="#9A3B82" stroke-width="5" stroke-miterlimit="10" stroke-linecap="round"/>
<path d="M514.693 60.8677V62.6173C514.693 64.6949 516.131 66.4008 517.902 66.4008H519.361" stroke="#9A3B82" stroke-width="5" stroke-miterlimit="10" stroke-linecap="round"/>
<path d="M653.077 336.692L677.269 548" stroke="#66B0F0" stroke-width="6" stroke-miterlimit="10"/>
<path d="M548.221 336.692L524.028 548" stroke="#66B0F0" stroke-width="6" stroke-miterlimit="10"/>
<path d="M532.322 475.435H668.955" stroke="#66B0F0" stroke-width="6" stroke-miterlimit="10"/>
<path d="M534.28 337.348H665.767C667.517 337.348 668.934 335.861 668.934 334.024V329.519C668.934 327.682 667.517 326.195 665.767 326.195H534.28C532.53 326.195 531.113 327.682 531.113 329.519V334.024C531.113 335.861 532.53 337.348 534.28 337.348Z" fill="white" stroke="#FFCF2D" stroke-width="6" stroke-miterlimit="10"/>
<path d="M315.484 177.435L295.355 220.913H234.529L258.972 177.435H315.484Z" fill="white" stroke="#3FB1B5" stroke-width="5" stroke-miterlimit="10"/>
<path d="M302.148 188.042C302.148 188.042 299.501 183.296 293.146 184.521C288.395 185.418 282.769 189.529 279.31 187.32C275.851 185.111 272.787 182.356 268.307 183.668C263.827 184.98 260.514 187.495 260.514 187.495" stroke="#3FB1B5" stroke-width="5" stroke-miterlimit="10"/>
<path d="M300.064 194.822C300.064 194.822 297.418 190.076 291.062 191.301C286.311 192.197 280.685 196.309 277.226 194.1C273.767 191.891 270.704 189.136 266.224 190.448C261.743 191.76 258.43 194.275 258.43 194.275" stroke="#3FB1B5" stroke-width="5" stroke-miterlimit="10"/>
<path d="M338.364 372.559C338.364 378.398 322.923 383.122 303.585 383.122C284.248 383.122 269.266 378.398 269.266 372.559C269.266 366.72 284.248 361.996 303.585 361.996C322.923 361.996 338.364 366.742 338.364 372.559Z" fill="#FE5244"/>
<path d="M329.466 365.451V440.903L327.278 430.011C324.923 418.289 315.067 409.913 303.648 409.913C300.21 409.913 296.834 410.678 293.771 412.122C293.667 412.165 293.562 412.231 293.437 412.275L285.415 381.569L280.956 364.489C287.061 362.936 294.959 361.996 303.585 361.996C313.838 361.996 323.069 363.33 329.466 365.451Z" fill="#A0505A"/>
<path d="M329.466 365.451V379.667C323.069 381.788 313.838 383.122 303.585 383.122C296.938 383.122 290.728 382.554 285.415 381.591L280.956 364.511C287.061 362.958 294.959 362.018 303.585 362.018C313.838 361.996 323.069 363.33 329.466 365.451Z" fill="#73325A"/>
<path d="M327.924 438.694C328.487 438.869 333.779 440.422 338.468 440.422C341.01 440.422 343.365 439.962 344.698 438.563C345.844 437.36 346.115 435.61 345.511 433.401C344.969 431.433 343.927 430.208 342.406 429.771C339.614 428.983 335.738 431.17 332.675 433.467C337.447 427.387 342.156 419.667 340.406 414.615C339.781 412.822 338.364 411.619 336.593 411.4C335.113 411.225 333.738 411.772 333.092 412.8C330.091 417.589 327.632 437.25 327.528 438.081L327.924 438.694ZM333.967 413.412C334.342 412.822 335.134 412.472 336.051 412.472C336.197 412.472 336.342 412.472 336.488 412.493C337.155 412.581 338.76 412.975 339.447 414.987C339.906 416.321 340.072 418.77 338.218 422.882C336.467 426.775 333.3 431.345 328.799 436.529C329.466 431.542 331.591 417.196 333.967 413.412ZM343.969 437.797C342.594 439.241 339.468 439.678 334.905 439.066C332.508 438.737 330.279 438.213 329.091 437.885C329.987 437.054 331.654 435.544 333.592 434.145C337.301 431.455 340.26 430.296 342.156 430.842C343.302 431.17 344.073 432.111 344.532 433.707C345.032 435.544 344.844 436.879 343.969 437.797Z" fill="#FFCF2D"/>
<path d="M285.623 418.398L280.81 424.063C275.35 430.492 274.454 439.853 278.601 447.289L299.793 485.43C303.94 492.888 311.546 497.458 319.756 497.458H328.528C334.884 497.458 339.614 491.335 338.301 484.818L327.257 430.033C324.903 418.311 315.046 409.935 303.627 409.935C296.772 409.913 290.208 412.996 285.623 418.398Z" fill="white" stroke="#3FB1B5" stroke-width="5" stroke-miterlimit="10"/>
<path d="M302.023 434.888L329.383 490.526C330.675 493.041 332.279 494.659 334.113 495.687C332.529 496.802 330.612 497.48 328.528 497.48H319.756C311.525 497.48 303.919 492.888 299.793 485.452L278.601 447.289C277.747 445.736 277.101 444.118 276.663 442.434C273.662 430.733 286.353 421.548 295.876 428.415C298.043 429.968 300.168 432.067 302.023 434.888Z" fill="#3FB1B5"/>
<path d="M302.085 435.02H276.83C276.955 434.604 277.1 434.211 277.267 433.839H301.272C301.522 434.189 301.772 434.539 302.022 434.91L302.085 435.02Z" fill="white"/>
<path d="M305.794 442.543H276.705C276.705 442.499 276.684 442.455 276.684 442.434C276.6 442.084 276.517 441.712 276.455 441.362H305.232L305.794 442.543Z" fill="white"/>
<path d="M309.503 450.088H280.164L279.497 448.885H308.92L309.503 450.088Z" fill="white"/>
<path d="M313.212 457.633H284.352L283.685 456.43H312.629L313.212 457.633Z" fill="white"/>
<path d="M316.922 465.156H288.541L287.874 463.976H316.338L316.922 465.156Z" fill="white"/>
<path d="M320.631 472.702H292.729L292.062 471.499H320.026L320.631 472.702Z" fill="white"/>
<path d="M324.34 480.247H296.917L296.25 479.044H323.736L324.34 480.247Z" fill="white"/>
<path d="M328.028 487.77H301.272C301.001 487.376 300.731 486.983 300.48 486.589H327.445L328.028 487.77Z" fill="white"/>
<path d="M333.508 495.315H310.253C309.503 494.965 308.774 494.572 308.065 494.134H332.008C332.487 494.572 332.987 494.965 333.508 495.315Z" fill="white"/>
<path d="M253.012 371.006C252.825 376.78 237.217 381.46 218.005 381.46C198.792 381.46 183.185 376.802 182.997 371.006V325.539H253.012V371.006Z" fill="#73325A"/>
<path d="M248.365 378.551L248.261 383.953L247.261 436.682V435.151C247.261 421.613 236.8 410.635 223.902 410.635H222.485C215.9 410.635 209.961 413.325 205.565 417.655L202.501 395.916L200.605 382.466C205.731 383.363 211.67 383.866 217.984 383.866C230.987 383.844 242.302 381.701 248.365 378.551Z" fill="#A0505A"/>
<path d="M248.366 378.551L248.262 383.953C240.51 389.727 216.567 396.835 202.523 395.894L200.626 382.444C205.753 383.319 211.691 383.844 218.005 383.844C230.987 383.844 242.302 381.701 248.366 378.551Z" fill="#73325A"/>
<path d="M224.964 498.18H228.84C239.009 498.18 247.261 489.52 247.261 478.847V435.151C247.261 421.613 236.8 410.635 223.902 410.635H222.485C207.482 410.635 195.917 424.522 197.938 440.137L202.835 477.929C204.356 489.52 213.795 498.18 224.964 498.18Z" fill="white" stroke="#3FB1B5" stroke-width="5" stroke-miterlimit="10"/>
<path d="M241.468 492.909C238.176 496.168 233.716 498.18 228.84 498.18H224.965C213.795 498.18 204.356 489.52 202.856 477.929L197.959 440.137C197.875 439.415 197.792 438.694 197.771 437.994C199.022 429.618 205.919 423.21 214.254 423.21C218.359 423.21 222.151 424.784 225.09 427.409C228.028 430.033 230.091 433.729 230.737 437.994L237.175 484.118C237.655 487.551 239.197 490.613 241.468 492.909Z" fill="#3FB1B5"/>
<path d="M228.799 432.155H199.688C199.897 431.739 200.147 431.345 200.397 430.974H228.111C228.361 431.345 228.59 431.739 228.799 432.155Z" fill="white"/>
<path d="M230.966 439.678H197.896C197.855 439.284 197.813 438.891 197.792 438.497H230.799L230.966 439.678Z" fill="white"/>
<path d="M232.028 447.223H198.875L198.709 446.042H231.862L232.028 447.223Z" fill="white"/>
<path d="M233.07 454.768H199.855L199.688 453.565H232.904L233.07 454.768Z" fill="white"/>
<path d="M234.133 462.291H200.834L200.668 461.11H233.967L234.133 462.291Z" fill="white"/>
<path d="M235.175 469.837H201.793L201.647 468.656H235.008L235.175 469.837Z" fill="white"/>
<path d="M236.238 477.382H202.772L202.626 476.179H236.071L236.238 477.382Z" fill="white"/>
<path d="M237.3 484.905H204.835C204.648 484.511 204.481 484.118 204.335 483.724H237.113L237.175 484.118C237.217 484.38 237.259 484.643 237.3 484.905Z" fill="white"/>
<path d="M241.03 492.45H210.336C209.92 492.078 209.503 491.663 209.128 491.269H240.072C240.364 491.685 240.697 492.078 241.03 492.45Z" fill="white"/>
<path d="M268.161 134.679V171.508C266.64 167.331 254.596 167.921 241.343 173.192C229.987 177.719 221.464 183.93 220.214 188.239V136.407C220.214 120.989 228.069 107.21 240.135 99.6871C255.805 102.552 268.161 116.877 268.161 134.679Z" fill="#FFCF2D"/>
<path d="M219.297 101.349C208.628 109.135 201.835 122.06 201.835 136.407V179.163H142.51L150.699 142.159C154.179 126.39 165.056 113.815 179.226 108.457L219.297 101.349Z" fill="#FFCF2D"/>
<path d="M339.281 284.357V370.197C339.281 364.358 322.923 359.634 303.585 359.634C284.248 359.634 268.578 364.358 268.578 370.197V329.06C268.578 327.135 267.078 325.56 265.244 325.56H158.888C126.902 325.56 103.251 294.308 110.482 261.613L136.154 145.527C140.238 127.003 154.533 112.897 172.391 109.704L179.226 108.479C165.056 113.837 154.179 126.412 150.699 142.181L142.51 179.185H201.835V136.407C201.835 122.06 208.649 109.113 219.297 101.349L228.674 99.6872C230.612 99.3373 232.508 99.1842 234.404 99.1842C234.654 99.1842 234.883 99.1842 235.133 99.1842C235.363 99.1842 235.592 99.2061 235.8 99.2061C235.842 99.2061 235.884 99.2061 235.925 99.2061C236.092 99.2061 236.279 99.2279 236.446 99.2279C236.467 99.2279 236.509 99.2279 236.53 99.2279C236.634 99.2279 236.738 99.2498 236.821 99.2498C237.009 99.2717 237.176 99.2717 237.363 99.2936C237.571 99.3154 237.801 99.3373 238.009 99.3592C238.217 99.381 238.405 99.4029 238.613 99.4248C238.655 99.4248 238.697 99.4466 238.759 99.4466C238.968 99.4685 239.197 99.5123 239.405 99.5341C239.426 99.5341 239.447 99.5341 239.447 99.5341C239.676 99.5779 239.905 99.5997 240.134 99.6435C228.069 107.167 220.214 120.945 220.214 136.363V241.448H298.439C320.985 241.492 339.281 260.672 339.281 284.357Z" fill="#FE5244"/>
<path d="M220.651 100.387C209.982 108.173 201.814 122.06 201.814 136.407V179.163H142.489L150.678 142.159C154.158 126.391 164.118 113.575 178.309 108.217" stroke="white" stroke-width="6" stroke-miterlimit="10" stroke-linecap="round"/>
<path d="M268.578 315.872C268.578 303.69 272.683 291.902 280.164 282.608" stroke="white" stroke-width="6" stroke-miterlimit="10" stroke-linecap="round"/>
<path d="M181.914 311.52C181.81 311.52 181.705 311.498 181.622 311.432L178.871 309.858C178.559 309.683 178.455 309.289 178.621 308.961C178.788 308.633 179.163 308.524 179.476 308.699L182.226 310.273C182.539 310.448 182.643 310.842 182.476 311.17C182.351 311.389 182.143 311.52 181.914 311.52ZM184.664 310.776C184.435 310.776 184.227 310.645 184.123 310.426C183.956 310.098 184.06 309.705 184.373 309.53L187.123 307.955C187.436 307.78 187.811 307.911 187.978 308.218C188.144 308.546 188.04 308.939 187.727 309.114L184.977 310.689C184.873 310.733 184.768 310.776 184.664 310.776ZM176.413 308.392C176.308 308.392 176.204 308.371 176.121 308.305L173.37 306.73C173.058 306.555 172.953 306.162 173.12 305.834C173.287 305.506 173.662 305.396 173.975 305.571L176.725 307.146C177.038 307.321 177.142 307.715 176.975 308.043C176.85 308.261 176.642 308.392 176.413 308.392ZM190.145 307.627C189.915 307.627 189.707 307.496 189.603 307.277C189.436 306.949 189.54 306.555 189.853 306.38L192.604 304.806C193.083 304.543 193.52 304.237 193.958 303.909C194.229 303.69 194.625 303.756 194.833 304.04C195.042 304.325 194.979 304.74 194.708 304.959C194.229 305.331 193.729 305.659 193.208 305.965L190.457 307.54C190.353 307.605 190.249 307.627 190.145 307.627ZM170.974 305.156C170.849 305.156 170.724 305.112 170.599 305.024C169.724 304.347 168.911 303.559 168.223 302.663C167.994 302.378 168.036 301.963 168.307 301.744C168.578 301.503 168.973 301.547 169.182 301.831C169.807 302.641 170.536 303.34 171.328 303.953C171.599 304.172 171.662 304.587 171.474 304.871C171.37 305.068 171.182 305.156 170.974 305.156ZM196.584 302.859C196.438 302.859 196.313 302.816 196.188 302.706C195.917 302.488 195.875 302.072 196.104 301.788C196.729 300.979 197.25 300.104 197.667 299.141C197.813 298.813 198.188 298.66 198.501 298.813C198.813 298.967 198.959 299.36 198.813 299.688C198.355 300.738 197.771 301.722 197.084 302.597C196.938 302.772 196.771 302.859 196.584 302.859ZM167.056 300.147C166.827 300.147 166.598 300.016 166.494 299.776C166.035 298.726 165.702 297.632 165.494 296.495C165.431 296.145 165.66 295.795 165.994 295.73C166.327 295.664 166.66 295.905 166.723 296.255C166.911 297.283 167.202 298.267 167.619 299.207C167.765 299.535 167.619 299.929 167.306 300.082C167.223 300.126 167.14 300.147 167.056 300.147ZM199.167 296.954C199.126 296.954 199.084 296.954 199.063 296.954C198.73 296.889 198.501 296.539 198.563 296.189C198.688 295.467 198.751 294.746 198.751 294.024V293.04C198.751 292.668 199.022 292.384 199.376 292.384C199.73 292.384 200.001 292.668 200.001 293.04V294.024C200.001 294.833 199.938 295.642 199.793 296.43C199.73 296.736 199.459 296.954 199.167 296.954ZM165.91 293.761C165.556 293.761 165.285 293.477 165.285 293.105V289.825C165.285 289.453 165.556 289.169 165.91 289.169C166.265 289.169 166.535 289.453 166.535 289.825V293.105C166.535 293.455 166.244 293.761 165.91 293.761ZM199.355 290.415C199.001 290.415 198.73 290.131 198.73 289.759V286.479C198.73 286.107 199.001 285.823 199.355 285.823C199.709 285.823 199.98 286.107 199.98 286.479V289.759C199.98 290.131 199.709 290.415 199.355 290.415ZM165.91 287.2C165.556 287.2 165.285 286.916 165.285 286.544V283.264C165.285 282.892 165.556 282.608 165.91 282.608C166.265 282.608 166.535 282.892 166.535 283.264V286.544C166.535 286.894 166.244 287.2 165.91 287.2ZM199.355 283.854C199.001 283.854 198.73 283.57 198.73 283.198V279.918C198.73 279.546 199.001 279.262 199.355 279.262C199.709 279.262 199.98 279.546 199.98 279.918V283.198C199.98 283.57 199.709 283.854 199.355 283.854ZM165.91 280.639C165.556 280.639 165.285 280.355 165.285 279.983V276.703C165.285 276.331 165.556 276.047 165.91 276.047C166.265 276.047 166.535 276.331 166.535 276.703V279.983C166.535 280.333 166.244 280.639 165.91 280.639ZM199.355 277.293C199.001 277.293 198.73 277.009 198.73 276.637V273.357C198.73 272.985 199.001 272.701 199.355 272.701C199.709 272.701 199.98 272.985 199.98 273.357V276.637C199.98 277.009 199.709 277.293 199.355 277.293ZM165.91 274.078C165.556 274.078 165.285 273.794 165.285 273.422V270.601H166.973C167.327 270.601 167.598 270.885 167.598 271.257C167.598 271.629 167.327 271.913 166.973 271.913H166.535V273.422C166.535 273.772 166.244 274.078 165.91 274.078ZM198.23 271.913H195.104C194.75 271.913 194.479 271.629 194.479 271.257C194.479 270.885 194.75 270.601 195.104 270.601H198.23C198.584 270.601 198.855 270.885 198.855 271.257C198.855 271.629 198.584 271.913 198.23 271.913ZM191.978 271.913H188.853C188.498 271.913 188.228 271.629 188.228 271.257C188.228 270.885 188.498 270.601 188.853 270.601H191.978C192.333 270.601 192.604 270.885 192.604 271.257C192.604 271.629 192.333 271.913 191.978 271.913ZM185.727 271.913H182.601C182.247 271.913 181.976 271.629 181.976 271.257C181.976 270.885 182.247 270.601 182.601 270.601H185.727C186.081 270.601 186.352 270.885 186.352 271.257C186.352 271.629 186.081 271.913 185.727 271.913ZM179.476 271.913H176.35C175.996 271.913 175.725 271.629 175.725 271.257C175.725 270.885 175.996 270.601 176.35 270.601H179.476C179.83 270.601 180.101 270.885 180.101 271.257C180.101 271.629 179.83 271.913 179.476 271.913ZM173.224 271.913H170.099C169.744 271.913 169.474 271.629 169.474 271.257C169.474 270.885 169.744 270.601 170.099 270.601H173.224C173.579 270.601 173.85 270.885 173.85 271.257C173.85 271.629 173.579 271.913 173.224 271.913Z" fill="white"/>
<path d="M122.943 307.889C122.714 307.889 122.505 307.758 122.401 307.54C122.234 307.211 122.339 306.818 122.651 306.643L125.193 305.178C125.256 305.134 125.318 305.112 125.381 305.068C125.673 304.893 126.069 305.003 126.235 305.309C126.402 305.615 126.298 306.031 126.006 306.205C125.944 306.249 125.881 306.293 125.798 306.315L123.255 307.78C123.151 307.868 123.047 307.889 122.943 307.889ZM128.215 304.39C128.048 304.39 127.881 304.325 127.756 304.172C127.527 303.909 127.548 303.494 127.798 303.253C128.527 302.553 129.173 301.744 129.736 300.891C129.924 300.585 130.319 300.519 130.611 300.716C130.903 300.913 130.965 301.328 130.778 301.635C130.174 302.575 129.444 303.45 128.652 304.237C128.507 304.347 128.361 304.39 128.215 304.39ZM131.695 299.01C131.611 299.01 131.549 298.988 131.466 298.967C131.153 298.835 130.986 298.464 131.111 298.114C131.466 297.129 131.716 296.123 131.861 295.096C131.903 294.746 132.216 294.483 132.57 294.527C132.903 294.571 133.153 294.899 133.112 295.27C132.966 296.408 132.695 297.523 132.299 298.595C132.174 298.857 131.945 299.01 131.695 299.01ZM132.591 292.58C132.237 292.58 131.966 292.296 131.966 291.924V288.644C131.966 288.272 132.237 287.988 132.591 287.988C132.945 287.988 133.216 288.272 133.216 288.644V291.924C133.216 292.274 132.945 292.58 132.591 292.58ZM132.591 286.019C132.237 286.019 131.966 285.735 131.966 285.363V282.083C131.966 281.711 132.237 281.427 132.591 281.427C132.945 281.427 133.216 281.711 133.216 282.083V285.363C133.216 285.713 132.945 286.019 132.591 286.019ZM132.591 279.458C132.237 279.458 131.966 279.174 131.966 278.802V275.522C131.966 275.15 132.237 274.866 132.591 274.866C132.945 274.866 133.216 275.15 133.216 275.522V278.802C133.216 279.152 132.945 279.458 132.591 279.458ZM132.591 272.897C132.237 272.897 131.966 272.613 131.966 272.241V271.913H130.403C130.049 271.913 129.778 271.629 129.778 271.257C129.778 270.885 130.049 270.601 130.403 270.601H133.216V272.241C133.216 272.591 132.945 272.897 132.591 272.897ZM127.277 271.913H124.151C123.797 271.913 123.526 271.629 123.526 271.257C123.526 270.885 123.797 270.601 124.151 270.601H127.277C127.631 270.601 127.902 270.885 127.902 271.257C127.902 271.629 127.611 271.913 127.277 271.913ZM121.026 271.913H117.9C117.546 271.913 117.275 271.629 117.275 271.257C117.275 270.885 117.546 270.601 117.9 270.601H121.026C121.38 270.601 121.651 270.885 121.651 271.257C121.651 271.629 121.359 271.913 121.026 271.913ZM114.774 271.913H111.649C111.295 271.913 111.024 271.629 111.024 271.257C111.024 270.885 111.295 270.601 111.649 270.601H114.774C115.129 270.601 115.4 270.885 115.4 271.257C115.4 271.629 115.108 271.913 114.774 271.913Z" fill="white"/>
<path d="M268.161 171.508C269.683 175.685 260.055 183.099 246.823 188.37C233.591 193.641 221.735 194.45 220.214 190.251C218.692 186.052 228.09 178.485 241.343 173.214C254.596 167.943 266.64 167.309 268.161 171.508Z" fill="#FE5244"/>
<path d="M275.559 307.19V309.508C274.871 309.333 274.142 309.245 273.412 309.245H270.724C266.744 309.245 263.348 306.577 262.056 302.859L269.683 301.788C272.787 301.35 275.559 303.887 275.559 307.19Z" fill="#73325A"/>
<path d="M282.602 318.89V336.692C282.602 340.848 279.393 344.216 275.434 344.216H267.453C265.473 344.216 263.681 343.385 262.389 342.007C261.097 340.651 260.285 338.77 260.285 336.692H265.473C267.182 336.692 268.557 335.249 268.557 333.456V328.797C268.557 327.004 267.182 325.561 265.473 325.561H238.947C228.59 325.561 220.193 316.747 220.193 305.878V188.261C221.443 183.952 229.966 177.719 241.322 173.214C249.074 170.131 256.43 168.643 261.493 168.775V299.601C261.493 304.937 265.619 309.267 270.704 309.267H273.392C278.476 309.245 282.602 313.554 282.602 318.89Z" fill="#A0505A"/>
<path d="M261.493 168.752V180.65C257.722 183.318 252.616 186.052 246.803 188.348C233.55 193.619 221.714 194.428 220.193 190.229V188.239C221.443 183.93 229.966 177.697 241.322 173.192C249.095 170.108 256.43 168.621 261.493 168.752Z" fill="#73325A"/>
<path d="M226.84 80.1573L219.005 101.349L178.621 108.938L189.165 80.1573H226.84Z" fill="#A0505A"/>
<path d="M226.84 80.1573L222.61 91.6172L182.56 98.1782L189.165 80.1573H226.84Z" fill="#73325A"/>
<path d="M250.512 37.0297C250.512 39.8947 245.781 43.0658 240.322 45.734C232.883 49.3862 224.11 52.1637 224.11 52.1637L218.192 63.8642C226.236 68.3475 229.382 76.3957 230.632 82.0163C231.424 85.6029 231.424 88.1617 231.424 88.1617H174.704C174.704 88.1617 159.805 37.5108 195.708 25.3949C217.671 17.9809 250.512 30.2281 250.512 37.0297Z" fill="white" stroke="#FFCF2D" stroke-width="6" stroke-miterlimit="10" stroke-linecap="round"/>
<path d="M190.457 32.612C198.248 32.612 204.564 25.9831 204.564 17.806C204.564 9.62887 198.248 3 190.457 3C182.666 3 176.35 9.62887 176.35 17.806C176.35 25.9831 182.666 32.612 190.457 32.612Z" fill="white" stroke="#FFCF2D" stroke-width="6" stroke-miterlimit="10" stroke-linecap="round"/>
<path d="M230.612 82.0165C229.445 76.7021 226.527 69.1351 219.338 64.5643H217.484C215.775 64.5643 214.212 63.8426 213.087 62.6616C211.962 61.4806 211.274 59.8404 211.274 58.0471C211.274 54.4385 214.046 51.5298 217.484 51.5298L225.34 51.7048H225.548C225.694 51.661 225.84 51.5954 226.006 51.5517C228.132 51.0705 234.863 49.3647 240.447 46.4341L241.093 50.48L243.177 63.4489C244.594 72.35 238.78 80.5513 230.612 82.0165Z" fill="#A0505A"/>
<path d="M241.072 50.4579C234.237 53.3666 225.319 51.6826 225.319 51.6826C225.319 51.6826 233.716 49.9331 240.426 46.412L241.072 50.4579Z" fill="#73325A"/>
<path d="M222.318 59.2934C222.318 56.8003 220.401 54.7882 218.026 54.7882" stroke="#73325A" stroke-width="5" stroke-miterlimit="10" stroke-linecap="round"/>
<path d="M244.385 336.692L268.578 548" stroke="#66B0F0" stroke-width="6" stroke-miterlimit="10"/>
<path d="M139.509 336.692L115.337 548" stroke="#66B0F0" stroke-width="6" stroke-miterlimit="10"/>
<path d="M123.63 475.435H260.264" stroke="#66B0F0" stroke-width="6" stroke-miterlimit="10"/>
<path d="M118.483 336.692H265.411C267.161 336.692 268.578 335.205 268.578 333.368V328.863C268.578 327.026 267.161 325.539 265.411 325.539H118.483C116.733 325.539 115.316 327.026 115.316 328.863V333.368C115.337 335.205 116.754 336.692 118.483 336.692Z" fill="white" stroke="#FFCF2D" stroke-width="6" stroke-miterlimit="10"/>
</svg>
