<svg width="38" height="36" viewBox="0 0 38 36" fill="none" xmlns="http://www.w3.org/2000/svg">
<path d="M20.88 0H16.4057C7.34509 0 0 7.09181 0 15.84V20.16C0 28.9082 7.34509 36 16.4057 36H20.88C29.9406 36 37.2857 28.9082 37.2857 20.16V15.84C37.2857 7.09181 29.9406 0 20.88 0Z" fill="url(#paint0_linear_249_8969)"/>
<path fill-rule="evenodd" clip-rule="evenodd" d="M9.69343 16.9478L10.8116 17.5806V18.8443V20.1099V21.3736V22.6373L11.9298 23.2701L13.048 23.9028L14.1662 24.5356L15.2844 25.1684L16.4025 25.8012L17.5207 26.4339L18.6389 27.0667L19.7571 26.4339L20.8753 25.8012L21.9935 25.1684L23.1117 24.5356L24.2299 23.9028L25.3481 23.2701L26.4663 22.6373V21.3736V20.1099V18.8443V17.5806L27.5845 16.9478V19.2364C27.492 19.2911 27.4296 19.3951 27.4296 19.5044C27.4296 19.6139 27.4825 19.7013 27.5619 19.7579L27.5241 19.8692L27.2993 20.5475H27.7488H28.1984L27.9736 19.8692L27.9358 19.7579C28.017 19.7013 28.0681 19.6248 28.0681 19.5044C28.0681 19.3841 27.9774 19.251 27.8528 19.2072V16.7946L18.9128 11.7361L19.1829 11.5829L28.1323 16.6414L28.7103 16.315L29.8285 15.6822L28.7103 15.0495L27.5921 14.4167L26.4739 13.784L25.3538 13.153L24.2356 12.5202L23.1174 11.8874L21.9992 11.2565L20.881 10.6237L19.7628 9.99092L18.6427 9.35999L17.5245 9.99279L16.4063 10.6255L15.2863 11.2565L14.1681 11.8893L13.0499 12.522L11.9317 13.153L10.8135 13.7858L9.69529 14.4186L8.57709 15.0513L7.45703 15.6822L8.57523 16.315L9.69343 16.9478ZM17.5245 15.0513L18.6427 14.4186L19.7609 15.0513L20.8791 15.6841L19.7609 16.3168L18.6427 16.9497L17.5245 17.5806V18.8461L18.6427 19.4789L19.7609 18.8461L20.8791 18.2133L21.9973 17.5806L23.1155 16.9478L24.2337 16.315L25.0025 15.8792L25.3519 15.6822L24.4018 15.1461L24.2337 15.0513L23.1155 14.4186L21.9973 13.7858L20.881 13.153L19.7628 12.5202L18.6446 11.8874L17.5245 12.522L16.4063 13.153L15.2881 13.7858L14.17 14.4186L13.0518 15.0513L11.9336 15.6841L13.0518 16.3168V17.5806V18.8443V20.1099V20.759V21.3736L14.17 22.0064L15.2881 22.6392L16.4063 23.2719L17.5245 23.9047L18.6427 24.5374L19.7609 23.9047L20.8791 23.2719L21.9973 22.6392L23.1155 22.0064L24.2337 21.3736V20.1099V18.8443L23.1155 19.4771L21.9973 20.1099L20.8791 20.7426L19.7609 21.3754L18.6427 22.0082L17.5245 21.3736L16.4063 20.7408L15.2881 20.108V16.315L16.4063 15.6822L17.5245 15.0513Z" fill="white"/>
<defs>
<linearGradient id="paint0_linear_249_8969" x1="29.0829" y1="32.4" x2="4.73437" y2="3.47338" gradientUnits="userSpaceOnUse">
<stop stop-color="#6440FB"/>
<stop offset="1" stop-color="#8466FF"/>
</linearGradient>
</defs>
</svg>
