<svg width="713" height="601" viewBox="0 0 713 601" fill="none" xmlns="http://www.w3.org/2000/svg">
<path d="M477.736 19.5295L521.371 63.2958L565.226 310.014H153.858L477.736 19.5295Z" fill="#FFCF2D"/>
<path d="M521.746 62.9521L477.978 19.0484L485.299 11.1429C496.081 -0.497507 515.506 0.831525 526.707 12.0137C537.908 23.2188 539.87 43.4062 529.088 55.0467L521.746 62.9521Z" fill="white" stroke="#FFCF2D" stroke-width="6" stroke-miterlimit="10" stroke-linecap="round"/>
<path d="M529.066 55.0467L485.276 11.1429" stroke="#FFCF2D" stroke-width="6" stroke-miterlimit="10" stroke-linecap="round"/>
<path d="M529.11 14.0072L534.005 10.1118C540.575 4.88731 550.012 6.26217 554.929 13.2052L675.229 165.402L613.646 308.135" stroke="#3FB1B5" stroke-width="6" stroke-miterlimit="10" stroke-linecap="round"/>
<path d="M673.266 173.17C676.993 173.17 680.013 170.03 680.013 166.158C680.013 162.285 676.993 159.146 673.266 159.146C669.54 159.146 666.519 162.285 666.519 166.158C666.519 170.03 669.54 173.17 673.266 173.17Z" fill="white" stroke="#FFCF2D" stroke-width="6" stroke-miterlimit="10" stroke-linecap="round"/>
<path d="M596.536 292.186H629.411C638.87 292.186 646.521 300.16 646.521 309.968V310.472H579.404V309.968C579.426 300.16 587.077 292.186 596.536 292.186Z" fill="white" stroke="#FFCF2D" stroke-width="6" stroke-miterlimit="10" stroke-linecap="round"/>
<path d="M437.276 258.434H229.155C221.328 258.434 215 251.857 215 243.723V92.4428C215 84.3082 221.328 77.7318 229.155 77.7318H437.276C445.103 77.7318 451.431 84.3082 451.431 92.4428V243.7C451.453 251.834 445.103 258.434 437.276 258.434Z" fill="white" stroke="#3FB1B5" stroke-width="6" stroke-miterlimit="10" stroke-linecap="round"/>
<path d="M437.408 244.364H231.294C228.229 244.364 225.76 241.775 225.76 238.613V93.8864C225.76 90.7013 228.251 88.1349 231.294 88.1349H437.408C440.473 88.1349 442.942 90.7242 442.942 93.8864V238.59C442.964 241.775 440.473 244.364 437.408 244.364Z" fill="#66B0F0" stroke="#66B0F0" stroke-width="6" stroke-miterlimit="10" stroke-linejoin="round"/>
<path d="M238.68 101.654H235.417C234.359 101.654 233.477 100.761 233.477 99.6379V96.2466C233.477 95.1467 234.337 94.2301 235.417 94.2301H238.68C239.739 94.2301 240.621 95.1238 240.621 96.2466V99.6379C240.599 100.761 239.739 101.654 238.68 101.654Z" stroke="white" stroke-width="6" stroke-miterlimit="10" stroke-linecap="round"/>
<path d="M253.519 101.654H250.256C249.198 101.654 248.316 100.761 248.316 99.6379V96.2466C248.316 95.1467 249.176 94.2301 250.256 94.2301H253.519C254.578 94.2301 255.46 95.1238 255.46 96.2466V99.6379C255.46 100.761 254.578 101.654 253.519 101.654Z" stroke="white" stroke-width="6" stroke-miterlimit="10" stroke-linecap="round"/>
<path d="M268.358 101.654H265.095C264.037 101.654 263.155 100.761 263.155 99.6379V96.2466C263.155 95.1467 264.015 94.2301 265.095 94.2301H268.358C269.417 94.2301 270.299 95.1238 270.299 96.2466V99.6379C270.299 100.761 269.439 101.654 268.358 101.654Z" stroke="white" stroke-width="6" stroke-miterlimit="10" stroke-linecap="round"/>
<path d="M377.148 310.014H296.361L312.214 258.434H361.273L377.148 310.014Z" fill="white" stroke="#3FB1B5" stroke-width="6" stroke-miterlimit="10" stroke-linecap="round"/>
<path d="M302.711 289.368L312.214 258.434H361.273L302.711 289.368Z" fill="#3FB1B5"/>
<path d="M425.413 135.59H386.144C382.462 135.59 379.485 132.497 379.485 128.67V102.319C379.485 98.4921 382.462 95.3987 386.144 95.3987H425.413C429.096 95.3987 432.072 98.4921 432.072 102.319V128.67C432.072 132.497 429.096 135.59 425.413 135.59Z" stroke="white" stroke-width="6" stroke-miterlimit="10" stroke-linecap="round"/>
<path d="M390.708 104.794H420.673" stroke="white" stroke-width="6" stroke-miterlimit="10" stroke-linecap="round"/>
<path d="M390.708 111.897H420.673" stroke="white" stroke-width="6" stroke-miterlimit="10" stroke-linecap="round"/>
<path d="M390.708 119H420.673" stroke="white" stroke-width="6" stroke-miterlimit="10" stroke-linecap="round"/>
<path d="M390.708 126.104H420.673" stroke="white" stroke-width="6" stroke-miterlimit="10" stroke-linecap="round"/>
<path d="M436.261 244.364H280.176L271.026 257.998C260.685 273.397 238.835 273.626 228.207 258.434L172.467 178.761C174.804 181.785 185.498 178.417 195.685 171.451C206.026 164.371 212.706 155.457 210.612 152.157L249.264 203.348L261.104 181.625C264.345 175.873 269.725 171.749 275.987 170.237L316.271 161.369H350.998L389.275 170.145C395.934 171.726 401.578 176.24 404.775 182.496L436.261 244.364Z" fill="white" stroke="#3FB1B5" stroke-width="6" stroke-miterlimit="10"/>
<path d="M393.42 243.425L382.329 220.671" stroke="#3FB1B5" stroke-width="6" stroke-miterlimit="10" stroke-linecap="round"/>
<path d="M279.294 245.556L290.275 223.031" stroke="#3FB1B5" stroke-width="6" stroke-miterlimit="10" stroke-linecap="round"/>
<path d="M234.226 183.481L259.384 216.913" stroke="#3FB1B5" stroke-width="6" stroke-miterlimit="10" stroke-linecap="round"/>
<path d="M337.967 172.368L347.228 184.077L367.954 165.791" stroke="#3FB1B5" stroke-width="6" stroke-miterlimit="10" stroke-linecap="round"/>
<path d="M330.889 172.597L321.893 184.535L299.117 165.791" stroke="#3FB1B5" stroke-width="6" stroke-miterlimit="10" stroke-linecap="round"/>
<path d="M218.285 162.4C220.379 165.722 213.677 174.751 203.269 181.923C193.039 188.98 182.191 192.372 179.831 189.324" stroke="#3FB1B5" stroke-width="6" stroke-miterlimit="10" stroke-linecap="round"/>
<path d="M211.361 168.197C212.737 168.197 213.853 167.038 213.853 165.608C213.853 164.178 212.737 163.019 211.361 163.019C209.985 163.019 208.87 164.178 208.87 165.608C208.87 167.038 209.985 168.197 211.361 168.197Z" stroke="#3FB1B5" stroke-width="6" stroke-miterlimit="10" stroke-linecap="round"/>
<path d="M334.395 184.466C335.771 184.466 336.886 183.307 336.886 181.877C336.886 180.447 335.771 179.288 334.395 179.288C333.019 179.288 331.903 180.447 331.903 181.877C331.903 183.307 333.019 184.466 334.395 184.466Z" stroke="#3FB1B5" stroke-width="6" stroke-miterlimit="10" stroke-linecap="round"/>
<path d="M334.395 205.318C335.771 205.318 336.886 204.159 336.886 202.729C336.886 201.299 335.771 200.14 334.395 200.14C333.019 200.14 331.903 201.299 331.903 202.729C331.903 204.159 333.019 205.318 334.395 205.318Z" stroke="#3FB1B5" stroke-width="6" stroke-miterlimit="10" stroke-linecap="round"/>
<path d="M270.232 259.098L280.176 244.364V259.098H270.232Z" fill="#3FB1B5"/>
<path d="M195.442 170.764C185.256 177.73 174.562 181.098 172.225 178.073C172.181 178.028 172.158 177.982 172.114 177.913C171.629 177.157 171.673 176.126 172.114 174.865C173.636 170.718 179.92 164.302 187.901 158.848C194.252 154.495 200.513 151.47 204.857 150.53C207.371 150.003 209.245 150.164 210.149 151.172L210.369 151.447C212.442 154.747 205.783 163.683 195.442 170.764Z" fill="#FE5244"/>
<path d="M195.442 170.764C189.643 174.728 183.668 177.546 179.17 178.646L159.039 149.133C156.239 145.008 157.165 139.302 161.156 136.392L179.28 123.148L169.005 104.977C167.506 102.342 168.366 98.9274 170.924 97.3922C171.762 96.8881 172.666 96.6589 173.57 96.6589C175.311 96.6589 177.031 97.5526 178.046 99.2024L210.171 151.126L210.391 151.493C212.442 154.747 205.783 163.683 195.442 170.764Z" fill="#E57281"/>
<path d="M179.236 123.354L190.459 141.433C191.495 143.129 191.032 145.375 189.401 146.474L186.909 148.17C185.278 149.293 183.073 148.812 182.014 147.116L171.409 130.618" stroke="#9A3B82" stroke-width="6" stroke-miterlimit="10" stroke-linecap="round"/>
<path d="M181.97 147.07C183.051 148.789 182.566 151.103 180.912 152.203L178.641 153.693C177.009 154.77 174.849 154.288 173.79 152.616" stroke="#9A3B82" stroke-width="6" stroke-miterlimit="10" stroke-linecap="round"/>
<path d="M163.361 136.438L173.746 152.478C174.826 154.197 174.363 156.511 172.666 157.611L170.549 158.825C168.961 159.879 166.867 159.444 165.764 157.84L159.745 149.018" stroke="#9A3B82" stroke-width="6" stroke-miterlimit="10" stroke-linecap="round"/>
<path d="M202.674 139.027L197.405 130.526C195.663 127.708 192.025 126.929 189.357 128.808L176.282 138.019C176.282 138.019 180.074 145.1 189.29 139.486L192.377 144.596C186.071 148.743 184.263 157.473 188.364 163.958L202.674 139.027Z" fill="#E57281"/>
<path d="M201.991 139.257L196.721 130.755C194.979 127.937 191.341 127.158 188.673 129.037L176.282 138.019C176.282 138.019 180.074 145.1 189.29 139.486L192.377 144.596C186.071 148.743 184.263 157.473 188.364 163.958" stroke="#9A3B82" stroke-width="6" stroke-miterlimit="10" stroke-linecap="round"/>
<path d="M195.442 170.764C189.643 174.728 183.668 177.546 179.17 178.646L174.165 171.314C176.965 167.51 181.97 162.927 187.901 158.871C194.252 154.517 200.514 151.493 204.857 150.553C207.371 150.026 209.245 150.187 210.149 151.195L210.369 151.47C210.391 151.516 210.414 151.539 210.436 151.584C210.458 151.607 210.458 151.63 210.48 151.676C210.502 151.722 210.524 151.745 210.546 151.791C212.045 155.296 205.453 163.889 195.442 170.764Z" fill="#9A3B82"/>
<path d="M350.976 141.204V161.346C350.976 167.189 343.171 171.909 333.579 171.909C323.966 171.909 316.183 167.189 316.183 161.346V141.204H350.976Z" fill="#E57281"/>
<path d="M321.276 168.816C318.123 166.914 316.16 164.256 316.16 161.346V141.204H350.976V146.795C350.976 152.593 347.58 157.794 342.421 159.971L321.276 168.816Z" fill="#9A3B82"/>
<path d="M360.677 140.013V140.356C360.677 143.839 357.965 146.658 354.614 146.658H350.623C349.278 152.295 344.383 156.488 338.518 156.488H328.64C322.797 156.488 317.88 152.318 316.557 146.658H312.566C309.215 146.658 306.503 143.839 306.503 140.356V140.013C306.503 136.53 309.215 133.711 312.566 133.711H316.182V128.739C316.182 123.423 319.953 119.023 324.87 118.29C325.95 120.169 329.213 124.66 335.872 124.408C339.003 124.294 341.914 123.675 344.317 122.942C347.205 122.071 350.094 123.904 350.821 126.768C350.932 127.41 350.998 128.052 350.998 128.716V133.688H354.614C357.943 133.688 360.677 136.53 360.677 140.013Z" fill="#E57281"/>
<path d="M353.754 133.688H350.976V128.166C350.976 127.685 350.91 127.204 350.799 126.768C350.072 123.904 347.183 122.071 344.295 122.942C341.892 123.675 339.003 124.294 335.85 124.408C329.191 124.66 325.928 120.169 324.848 118.29C319.931 119.023 316.16 123.423 316.16 128.739V133.711H312.699C312.699 133.711 308.73 118.794 311.707 114.578C314.639 110.43 318.167 112.241 318.167 112.241C318.167 112.241 316.05 99.8211 327.868 100.05C339.665 100.279 355.011 114.509 356.135 117.121C357.899 121.131 353.754 133.688 353.754 133.688Z" fill="#9A3B82"/>
<path d="M352.321 141.181C352.321 138.73 354.239 136.759 356.576 136.759" stroke="#9A3B82" stroke-width="5" stroke-miterlimit="10" stroke-linecap="round"/>
<path d="M314.882 141.181C314.882 138.73 312.963 136.759 310.626 136.759" stroke="#9A3B82" stroke-width="5" stroke-miterlimit="10" stroke-linecap="round"/>
<path d="M345.42 128.739C345.42 128.739 342.289 126.356 338.298 128.074" stroke="#9A3B82" stroke-width="5" stroke-miterlimit="10" stroke-linecap="round"/>
<path d="M321.518 128.739C321.518 128.739 324.649 126.356 328.64 128.074" stroke="#9A3B82" stroke-width="5" stroke-miterlimit="10" stroke-linecap="round"/>
<path d="M339.069 145.65C339.069 145.65 337.372 149.453 332.168 147.46" stroke="#9A3B82" stroke-width="5" stroke-miterlimit="10" stroke-linecap="round"/>
<path d="M331.925 143.679C333.27 143.773 335.321 143.679 335.321 143.679" stroke="#9A3B82" stroke-width="5" stroke-miterlimit="10" stroke-linecap="round"/>
<path d="M341.87 138.294C342.479 138.294 342.972 137.432 342.972 136.369C342.972 135.306 342.479 134.445 341.87 134.445C341.261 134.445 340.767 135.306 340.767 136.369C340.767 137.432 341.261 138.294 341.87 138.294Z" fill="#9A3B82"/>
<path d="M326.061 138.294C326.669 138.294 327.163 137.432 327.163 136.369C327.163 135.306 326.669 134.445 326.061 134.445C325.452 134.445 324.958 135.306 324.958 136.369C324.958 137.432 325.452 138.294 326.061 138.294Z" fill="#9A3B82"/>
<path d="M328.684 142.854H321.739C320.394 142.854 319.313 141.731 319.313 140.334V133.116C319.313 131.718 320.394 130.595 321.739 130.595H328.684C330.029 130.595 331.11 131.718 331.11 133.116V140.334C331.132 141.708 330.029 142.854 328.684 142.854Z" stroke="white" stroke-width="5" stroke-miterlimit="10"/>
<path d="M345.684 142.854H338.739C337.394 142.854 336.313 141.731 336.313 140.334V133.116C336.313 131.718 337.394 130.595 338.739 130.595H345.684C347.029 130.595 348.109 131.718 348.109 133.116V140.334C348.109 141.708 347.029 142.854 345.684 142.854Z" stroke="white" stroke-width="5" stroke-miterlimit="10"/>
<path d="M331.132 135.361H336.313" stroke="white" stroke-width="5" stroke-miterlimit="10"/>
<path d="M347.514 235.474H323.415C321.232 235.474 319.446 233.64 319.446 231.349V218.036C319.446 215.767 321.21 213.911 323.415 213.911H347.514C349.697 213.911 351.483 215.744 351.483 218.036V231.349C351.483 233.618 349.719 235.474 347.514 235.474Z" stroke="#66B0F0" stroke-width="6" stroke-miterlimit="10" stroke-linejoin="round"/>
<path d="M336.071 230.112H327.913C326.612 230.112 325.553 229.012 325.553 227.66V221.725C325.553 220.373 326.612 219.273 327.913 219.273H336.071C337.372 219.273 338.43 220.373 338.43 221.725V227.66C338.43 229.012 337.372 230.112 336.071 230.112Z" fill="#66B0F0"/>
<path d="M344.008 229.952L341.495 228.21C340.811 227.729 340.392 226.904 340.392 226.01V223.398C340.392 222.504 340.811 221.679 341.495 221.198L344.008 219.457C344.604 219.044 345.375 219.503 345.375 220.282V229.15C345.397 229.906 344.604 230.364 344.008 229.952Z" fill="#66B0F0"/>
<path d="M669.827 310.472H84.4916" stroke="#3FB1B5" stroke-width="6" stroke-miterlimit="10" stroke-linecap="round"/>
<path d="M272.945 314.482V597.381H257.577V543.533C257.577 538.514 253.652 534.436 248.823 534.436H138.821C133.992 534.436 130.067 538.514 130.067 543.533V597.381H114.699V314.482H272.945Z" fill="white" stroke="#3FB1B5" stroke-width="6" stroke-miterlimit="10" stroke-linecap="round"/>
<path d="M273.408 314.482V389.549L114.699 525.362L114.721 314.482H273.408Z" fill="#D0F0E4"/>
<path d="M257.576 336.021V387.326C257.576 392.092 253.872 395.942 249.286 395.942H138.379C133.793 395.942 130.089 392.092 130.089 387.326V336.021C130.089 331.255 133.793 327.405 138.379 327.405H249.286C253.872 327.405 257.576 331.255 257.576 336.021Z" stroke="#3FB1B5" stroke-width="6" stroke-miterlimit="10" stroke-linecap="round"/>
<path d="M222.033 434.805H167.44L165.169 418.558H219.784L222.033 434.805Z" fill="#FFCF2D"/>
<path d="M251.16 409.186C244.347 409.186 238.835 414.915 238.835 421.995V434.805H192.378V421.995C192.378 414.915 197.89 409.186 204.703 409.186H251.16Z" fill="white" stroke="#3FB1B5" stroke-width="6" stroke-miterlimit="10" stroke-linecap="round"/>
<path d="M262.736 418.558H216.279C214.846 413.151 210.061 409.186 204.394 409.186H250.852C256.518 409.186 261.281 413.151 262.736 418.558Z" fill="white" stroke="#3FB1B5" stroke-width="6" stroke-miterlimit="10" stroke-linecap="round"/>
<path d="M257.576 443.42V494.725C257.576 499.492 253.872 503.341 249.286 503.341H138.379C133.793 503.341 130.089 499.492 130.089 494.725V443.42C130.089 438.654 133.793 434.805 138.379 434.805H249.286C253.872 434.805 257.576 438.654 257.576 443.42Z" stroke="#3FB1B5" stroke-width="6" stroke-miterlimit="10" stroke-linecap="round"/>
<path d="M171.122 360.654C171.122 356.575 174.297 353.253 178.244 353.253H209.443C213.368 353.253 216.565 356.552 216.565 360.654" stroke="#3FB1B5" stroke-width="6" stroke-miterlimit="10" stroke-linecap="round"/>
<path d="M171.122 468.053C171.122 463.974 174.297 460.652 178.244 460.652H209.443C213.368 460.652 216.565 463.951 216.565 468.053" stroke="#3FB1B5" stroke-width="6" stroke-miterlimit="10" stroke-linecap="round"/>
<path d="M646.521 314.482H630.138V598H646.521V314.482Z" fill="white" stroke="#3FB1B5" stroke-width="6" stroke-miterlimit="10" stroke-linecap="round"/>
<path d="M368.108 598H710" stroke="#3FB1B5" stroke-width="6" stroke-miterlimit="10" stroke-linecap="round"/>
<path d="M161.222 271.586H151.322C151.322 271.586 137.189 210.382 124.775 208.389C112.362 206.395 111.722 229.951 111.722 229.951C111.722 229.951 111.943 194.136 142.966 199.04C174.011 203.943 161.222 271.586 161.222 271.586Z" fill="white" stroke="#3FB1B5" stroke-width="6" stroke-miterlimit="10" stroke-linecap="round"/>
<path d="M127.311 200.598C127.311 200.598 155.6 189.737 156.879 270.67" stroke="#3FB1B5" stroke-width="6" stroke-miterlimit="10" stroke-linecap="round"/>
<path d="M188.188 270.67H141.687V310.014H188.188V270.67Z" fill="#FE5244"/>
<path d="M197.978 290.353C195.023 291.682 191.496 291.522 188.21 290.032C185.785 288.932 183.492 287.122 181.64 284.648C179.082 281.21 177.362 276.513 177.362 270.67C177.362 256.509 166.514 247.618 162.06 266.362C161.751 267.668 161.465 269.089 161.222 270.67V270.624V270.532C161.222 270.487 161.222 270.418 161.244 270.349V270.257C161.333 269.089 161.663 265.629 162.678 261.458C163.427 258.365 164.552 254.928 166.227 251.743C167.065 250.162 168.035 248.649 169.182 247.297C172.137 243.768 176.194 241.294 181.728 241.294C191.915 241.294 199.367 253.759 202.211 266.179C204.703 276.971 203.689 287.764 197.978 290.353Z" fill="white" stroke="#3FB1B5" stroke-width="6" stroke-miterlimit="10" stroke-linecap="round"/>
<path d="M169.204 247.297C169.204 247.297 189.621 232.197 195.619 290.789" stroke="#3FB1B5" stroke-width="6" stroke-miterlimit="10" stroke-linecap="round"/>
<path d="M111.061 229.951C111.061 233.732 110.642 248.191 123.916 248.855C137.189 249.52 138.512 228.691 138.512 228.691C138.512 228.691 131.985 210.268 124.775 208.389C112.582 205.204 111.061 229.951 111.061 229.951Z" fill="#3FB1B5"/>
<path d="M177.362 270.67H161.222C164.949 246.404 177.362 255.523 177.362 270.67Z" fill="#3FB1B5"/>
<path opacity="0.4" d="M451.453 92.4428V243.7C451.453 251.834 445.103 258.411 437.298 258.411H270.718C260.267 273.374 238.725 273.442 228.185 258.411L228.163 258.388C223.974 258.09 220.27 255.867 217.888 252.59L221.725 249.153L319.622 161.346L412.846 77.7318H437.298C445.103 77.7318 451.453 84.3311 451.453 92.4428Z" fill="white"/>
<path opacity="0.4" d="M197.978 291.041C195.045 292.415 191.496 292.209 188.21 290.72V310.014H153.88L181.662 285.106L188.232 279.217L193.237 274.726L202.917 266.179C205.739 278.69 204.174 288.085 197.978 291.041Z" fill="white"/>
<path d="M17.2865 99.2712C17.022 99.2712 16.7574 99.0879 16.6692 98.8129C16.5589 98.4463 16.7353 98.0567 17.0661 97.9422L19.1387 97.186C19.4914 97.0714 19.8663 97.2547 19.9765 97.5984C20.0868 97.9651 19.9104 98.3546 19.5796 98.4692L17.507 99.2253C17.4188 99.2483 17.3527 99.2712 17.2865 99.2712ZM22.4901 97.3922C22.2255 97.3922 21.9609 97.2089 21.8727 96.9339C21.7625 96.5673 21.9389 96.1777 22.2696 96.0632L24.3422 95.307C24.695 95.1924 25.0698 95.3758 25.1801 95.7195C25.2903 96.0861 25.1139 96.4756 24.7832 96.5902L22.7106 97.3464C22.6444 97.3693 22.5563 97.3922 22.4901 97.3922ZM27.6937 95.4903C27.4291 95.4903 27.1645 95.307 27.0763 95.032C26.9661 94.6654 27.1424 94.2759 27.4732 94.1613L29.5458 93.4051C29.8986 93.2906 30.2734 93.4739 30.3837 93.8176C30.4939 94.1842 30.3175 94.5738 29.9868 94.6883L27.9142 95.4445C27.848 95.4903 27.7598 95.4903 27.6937 95.4903ZM32.8972 93.6113C32.6326 93.6113 32.3681 93.428 32.2799 93.1531C32.1696 92.7864 32.346 92.3969 32.6767 92.2823L34.7493 91.5262C35.1021 91.4116 35.477 91.5949 35.5872 91.9386C35.6975 92.3052 35.5211 92.6948 35.1903 92.8094L33.1177 93.5655C33.0516 93.6113 32.9854 93.6113 32.8972 93.6113ZM38.1008 91.7324C37.8362 91.7324 37.5716 91.5491 37.4834 91.2741C37.3732 90.9075 37.5496 90.5179 37.8803 90.4034L39.9529 89.6472C40.3057 89.5326 40.6805 89.7159 40.7908 90.0596C40.901 90.4263 40.7246 90.8158 40.3939 90.9304L38.3213 91.6866C38.2552 91.7324 38.189 91.7324 38.1008 91.7324ZM43.3264 89.8534C43.0618 89.8534 42.7972 89.6701 42.709 89.3951C42.5988 89.0285 42.7752 88.639 43.1059 88.5244L45.1785 87.7682C45.5313 87.6536 45.9061 87.837 46.0164 88.1807C46.1266 88.5473 45.9503 88.9368 45.6195 89.0514L43.5469 89.8076C43.4587 89.8534 43.3926 89.8534 43.3264 89.8534ZM48.53 87.9744C48.2654 87.9744 48.0008 87.7911 47.9126 87.5162C47.8024 87.1495 47.9787 86.76 48.3095 86.6454L50.3821 85.8892C50.7349 85.7747 51.1097 85.958 51.22 86.3017C51.3302 86.6683 51.1538 87.0579 50.8231 87.1724L48.7505 87.9286C48.6623 87.9515 48.5961 87.9744 48.53 87.9744ZM53.7335 86.0955C53.4689 86.0955 53.2044 85.9122 53.1162 85.6372C53.0059 85.2706 53.1823 84.881 53.513 84.7665L55.5857 84.0103C55.9384 83.8957 56.3133 84.079 56.4235 84.4227C56.5338 84.7894 56.3574 85.1789 56.0266 85.2935L53.954 86.0496C53.8658 86.0726 53.7997 86.0955 53.7335 86.0955ZM58.9371 84.2165C58.6725 84.2165 58.4079 84.0332 58.3197 83.7582C58.2095 83.3916 58.3859 83.0021 58.7166 82.8875L60.7892 82.1313C61.142 82.0167 61.5168 82.2001 61.6271 82.5438C61.7373 82.9104 61.5609 83.2999 61.2302 83.4145L59.1576 84.1707C59.0915 84.1936 59.0033 84.2165 58.9371 84.2165ZM64.1407 82.3375C63.8761 82.3375 63.6115 82.1542 63.5233 81.8792C63.4131 81.5126 63.5895 81.1231 63.9202 81.0085L65.9928 80.2523C66.3456 80.1378 66.7204 80.3211 66.8306 80.6648C66.9409 81.0314 66.7645 81.421 66.4338 81.5355L64.3612 82.2917C64.295 82.3146 64.2068 82.3375 64.1407 82.3375ZM69.3442 80.4586C69.0797 80.4586 68.8151 80.2753 68.7269 80.0003C68.6166 79.6337 68.793 79.2441 69.1237 79.1295L71.1964 78.3734C71.5491 78.2588 71.924 78.4421 72.0342 78.7858C72.1445 79.1525 71.9681 79.542 71.6373 79.6566L69.5647 80.4127C69.4986 80.4357 69.4104 80.4586 69.3442 80.4586ZM74.5478 78.5567C74.2832 78.5567 74.0186 78.3734 73.9304 78.0984C73.8202 77.7318 73.9966 77.3422 74.3273 77.2277L76.3999 76.4715C76.7527 76.3569 77.1275 76.5402 77.2378 76.8839C77.348 77.2506 77.1716 77.6401 76.8409 77.7547L74.7683 78.5109C74.7021 78.5567 74.636 78.5567 74.5478 78.5567ZM79.7514 76.6777C79.4868 76.6777 79.2222 76.4944 79.134 76.2194C79.0238 75.8528 79.2001 75.4633 79.5309 75.3487L81.6035 74.5925C81.9563 74.4779 82.3311 74.6613 82.4414 75.005C82.5516 75.3716 82.3752 75.7612 82.0445 75.8757L79.9718 76.6319C79.9057 76.6777 79.8396 76.6777 79.7514 76.6777ZM84.977 74.7988C84.7124 74.7988 84.4478 74.6154 84.3596 74.3405C84.2494 73.9738 84.4258 73.5843 84.7565 73.4697L86.8291 72.7135C87.1819 72.599 87.5567 72.7823 87.667 73.126C87.7772 73.4926 87.6008 73.8822 87.2701 73.9968L85.1975 74.7529C85.1093 74.7987 85.0431 74.7988 84.977 74.7988ZM90.1805 72.9198C89.916 72.9198 89.6514 72.7365 89.5632 72.4615C89.4529 72.0949 89.6293 71.7053 89.9601 71.5908L92.0327 70.8346C92.3855 70.72 92.7603 70.9033 92.8705 71.247C92.9808 71.6137 92.8044 72.0032 92.4736 72.1178L90.401 72.8739C90.3128 72.9198 90.2467 72.9198 90.1805 72.9198ZM95.3841 71.0408C95.1195 71.0408 94.8549 70.8575 94.7667 70.5825C94.6565 70.2159 94.8329 69.8264 95.1636 69.7118L97.2362 68.9556C97.589 68.841 97.9639 69.0244 98.0741 69.3681C98.1843 69.7347 98.0079 70.1242 97.6772 70.2388L95.6046 70.995C95.5164 71.0408 95.4503 71.0408 95.3841 71.0408ZM100.588 69.1618C100.323 69.1618 100.059 68.9785 99.9703 68.7036C99.8601 68.3369 100.036 67.9474 100.367 67.8328L102.44 67.0766C102.793 66.9621 103.167 67.1454 103.278 67.4891C103.388 67.8557 103.212 68.2453 102.881 68.3598L100.808 69.116C100.742 69.1389 100.654 69.1618 100.588 69.1618ZM105.791 67.2829C105.527 67.2829 105.262 67.0996 105.174 66.8246C105.064 66.458 105.24 66.0684 105.571 65.9538L107.643 65.1977C107.996 65.0831 108.371 65.2664 108.481 65.6101C108.591 65.9768 108.415 66.3663 108.084 66.4809L106.012 67.237C105.946 67.26 105.857 67.2829 105.791 67.2829Z" fill="#FFCF2D"/>
<path d="M40.7467 99.2712C40.3719 99.2712 40.0853 98.9733 40.0853 98.5838C40.0853 92.374 38.2331 87.8599 34.5509 85.2018C31.7948 83.2083 28.9946 83.025 28.9725 83.025C28.5977 83.0021 28.3331 82.6813 28.3552 82.2917C28.3772 81.9022 28.6859 81.6272 29.0387 81.6501C29.171 81.6501 32.1917 81.8335 35.2565 84.0332C40.3498 87.6995 41.4082 93.978 41.4082 98.5838C41.4082 98.9504 41.1216 99.2712 40.7467 99.2712Z" fill="#3FB1B5"/>
<path d="M146.097 99.2712H17.2865C17.0439 99.2712 16.8014 99.1337 16.6912 98.8817C16.5809 98.6525 16.603 98.3776 16.7573 98.1713L69.1017 25.6477C69.2119 25.4873 69.3883 25.3957 69.5647 25.3728C69.7411 25.3498 69.9395 25.4186 70.0718 25.5561L146.56 98.0797C146.758 98.263 146.824 98.5609 146.736 98.8359C146.626 99.0879 146.383 99.2712 146.097 99.2712ZM18.6094 97.8964H144.399L69.719 27.0684L18.6094 97.8964Z" fill="#3FB1B5"/>
<path d="M5.7107 104.037C2.55769 104.037 0 101.379 0 98.1025C0 94.8258 2.55769 92.1677 5.7107 92.1677C8.86371 92.1677 11.4214 94.8258 11.4214 98.1025C11.4214 101.379 8.86371 104.037 5.7107 104.037ZM5.7107 93.5197C3.28531 93.5197 1.32294 95.559 1.32294 98.0796C1.32294 100.6 3.28531 102.64 5.7107 102.64C8.13609 102.64 10.0984 100.6 10.0984 98.0796C10.0984 95.559 8.13609 93.5197 5.7107 93.5197Z" fill="#FFCF2D"/>
<path d="M11.4213 98.1025H10.0983V103.35H11.4213V98.1025Z" fill="#FFCF2D"/>
<path d="M73.5332 21.1335C70.3802 21.1335 67.8225 18.4754 67.8225 15.1987C67.8225 11.922 70.3802 9.26392 73.5332 9.26392C76.6862 9.26392 79.2439 11.922 79.2439 15.1987C79.2439 18.4525 76.6862 21.1335 73.5332 21.1335ZM73.5332 10.6159C71.1078 10.6159 69.1455 12.6552 69.1455 15.1758C69.1455 17.6964 71.1078 19.7586 73.5332 19.7586C75.9586 19.7586 77.921 17.7193 77.921 15.1987C77.921 12.6781 75.9586 10.6159 73.5332 10.6159Z" fill="#FFCF2D"/>
<path d="M69.1016 6.01013H67.7787V20.4232H69.1016V6.01013Z" fill="#FFCF2D"/>
<path d="M156.394 103.9C153.241 103.9 150.683 101.242 150.683 97.9651C150.683 94.6883 153.241 92.0303 156.394 92.0303V93.4051C153.968 93.4051 152.006 95.4445 152.006 97.9651C152.006 100.486 153.968 102.525 156.394 102.525V103.9Z" fill="#FFCF2D"/>
<path d="M490.326 392.849V520.389H461.971L443.913 467.985L418.049 392.849H490.326Z" fill="#A0505A"/>
<path d="M418.049 392.849H490.326V433.796L426.648 417.802L418.049 392.849Z" fill="#73325A"/>
<path d="M490.326 467.984V520.389H461.971L443.913 467.984C443.913 467.984 458.531 476.371 490.326 467.984Z" stroke="white" stroke-width="6" stroke-miterlimit="10" stroke-linecap="round"/>
<path d="M458.663 480.289C460.441 480.289 461.883 478.792 461.883 476.944C461.883 475.096 460.441 473.598 458.663 473.598C456.885 473.598 455.444 475.096 455.444 476.944C455.444 478.792 456.885 480.289 458.663 480.289Z" stroke="white" stroke-width="6" stroke-miterlimit="10" stroke-linecap="round"/>
<path d="M474.009 491.082C475.787 491.082 477.229 489.584 477.229 487.737C477.229 485.889 475.787 484.391 474.009 484.391C472.232 484.391 470.79 485.889 470.79 487.737C470.79 489.584 472.232 491.082 474.009 491.082Z" stroke="white" stroke-width="6" stroke-miterlimit="10" stroke-linecap="round"/>
<path d="M485.431 479.098C487.209 479.098 488.65 477.6 488.65 475.752C488.65 473.905 487.209 472.407 485.431 472.407C483.653 472.407 482.212 473.905 482.212 475.752C482.212 477.6 483.653 479.098 485.431 479.098Z" stroke="white" stroke-width="6" stroke-miterlimit="10" stroke-linecap="round"/>
<path d="M480.911 503.639C482.689 503.639 484.13 502.141 484.13 500.294C484.13 498.446 482.689 496.948 480.911 496.948C479.133 496.948 477.692 498.446 477.692 500.294C477.692 502.141 479.133 503.639 480.911 503.639Z" stroke="white" stroke-width="6" stroke-miterlimit="10" stroke-linecap="round"/>
<path d="M461.883 497.544C463.66 497.544 465.102 496.046 465.102 494.198C465.102 492.351 463.66 490.853 461.883 490.853C460.105 490.853 458.663 492.351 458.663 494.198C458.663 496.046 460.105 497.544 461.883 497.544Z" stroke="white" stroke-width="6" stroke-miterlimit="10" stroke-linecap="round"/>
<path d="M467.13 515.875C468.908 515.875 470.349 514.377 470.349 512.53C470.349 510.682 468.908 509.184 467.13 509.184C465.352 509.184 463.911 510.682 463.911 512.53C463.911 514.377 465.352 515.875 467.13 515.875Z" stroke="white" stroke-width="6" stroke-miterlimit="10" stroke-linecap="round"/>
<path d="M503.732 544.174L484.284 586.13C481.528 592.89 475.156 597.29 468.078 597.29H443.273C436.923 597.29 433.065 590.599 435.49 584.503L460.427 521.993C461.816 518.19 464.264 515.027 467.329 512.805C470.415 510.582 474.12 509.322 478.022 509.322C483.446 509.322 488.826 513.148 492.398 517.388L501.042 527.08C505.032 531.801 506.069 538.423 503.732 544.174Z" fill="#66B0F0"/>
<path d="M503.732 544.174L484.284 586.13C481.528 592.89 475.156 597.29 468.078 597.29H441.708C439.26 597.29 437.871 595.709 437.055 593.532H442.92C449.998 593.532 456.37 589.132 459.126 582.372L481.55 533.771C483.645 529.234 488.077 526.324 492.928 526.324C499.256 526.324 504.062 531.136 504.944 537.231C505.032 539.569 504.636 541.929 503.732 544.174Z" fill="white" stroke="#66B0F0" stroke-width="6" stroke-miterlimit="10" stroke-linejoin="round"/>
<path d="M499.255 525.064C496.918 523.735 494.096 522.772 491.627 522.772C486.886 522.772 482.498 525.637 480.448 530.082L457.23 580.402C454.276 587.666 447.44 592.363 439.833 592.363H435.556C435.335 591.928 435.181 591.469 435.027 590.988H439.833C446.911 590.988 453.261 586.612 456.017 579.852L456.039 579.829L479.279 529.486C481.55 524.56 486.401 521.398 491.649 521.398C493.324 521.398 495.331 521.97 497.051 522.589L499.255 525.064Z" fill="white"/>
<path d="M418.049 392.849L412.515 467.984L410.045 501.646C410.045 501.646 393.927 520.298 375.583 508.795L367.094 468.007L347.669 374.678C342.421 349.449 359.002 324.908 383.631 321.494L418.049 392.849Z" fill="#A0505A"/>
<path d="M412.515 467.984L410.045 502.562C410.045 502.562 393.927 521.214 375.583 509.711L367.094 468.007C388.415 474.653 412.515 467.984 412.515 467.984Z" stroke="white" stroke-width="6" stroke-miterlimit="10" stroke-linecap="round"/>
<path d="M387.18 488.768C388.958 488.768 390.4 487.27 390.4 485.422C390.4 483.575 388.958 482.077 387.18 482.077C385.403 482.077 383.961 483.575 383.961 485.422C383.961 487.27 385.403 488.768 387.18 488.768Z" stroke="white" stroke-width="6" stroke-miterlimit="10" stroke-linecap="round"/>
<path d="M407.642 483.635C409.42 483.635 410.861 482.137 410.861 480.289C410.861 478.442 409.42 476.944 407.642 476.944C405.864 476.944 404.423 478.442 404.423 480.289C404.423 482.137 405.864 483.635 407.642 483.635Z" stroke="white" stroke-width="6" stroke-miterlimit="10" stroke-linecap="round"/>
<path d="M374.833 479.098C376.611 479.098 378.052 477.6 378.052 475.752C378.052 473.905 376.611 472.407 374.833 472.407C373.055 472.407 371.614 473.905 371.614 475.752C371.614 477.6 373.055 479.098 374.833 479.098Z" stroke="white" stroke-width="6" stroke-miterlimit="10" stroke-linecap="round"/>
<path d="M383.961 506.985C385.739 506.985 387.181 505.487 387.181 503.639C387.181 501.791 385.739 500.294 383.961 500.294C382.183 500.294 380.742 501.791 380.742 503.639C380.742 505.487 382.183 506.985 383.961 506.985Z" stroke="white" stroke-width="6" stroke-miterlimit="10" stroke-linecap="round"/>
<path d="M398.977 500.294C400.755 500.294 402.196 498.796 402.196 496.948C402.196 495.1 400.755 493.603 398.977 493.603C397.199 493.603 395.758 495.1 395.758 496.948C395.758 498.796 397.199 500.294 398.977 500.294Z" stroke="white" stroke-width="6" stroke-miterlimit="10" stroke-linecap="round"/>
<path d="M431.301 509.665L410.045 598H403.342C403.034 598 402.747 597.977 402.438 597.954C397.367 597.473 393.09 593.028 392.009 587.78L375.561 508.749C393.905 520.275 410.045 501.623 410.045 501.623L431.301 509.665Z" fill="#66B0F0"/>
<path d="M432.381 554.99C436.857 530.426 438.092 511.659 430.374 510.147C422.657 508.634 408.921 524.926 404.445 549.49C399.969 574.055 402.306 595.777 410.023 597.29C417.74 598.825 427.905 579.577 432.381 554.99Z" fill="white" stroke="#66B0F0" stroke-width="6" stroke-miterlimit="10" stroke-linejoin="round"/>
<path d="M401.358 549.101C399.043 561.841 398.359 574.146 399.462 583.77C400.256 590.69 401.931 595.617 404.224 598H403.342C403.034 598 402.747 597.977 402.438 597.954C400.366 595.113 398.888 590.347 398.139 583.931C397.014 574.192 397.698 561.727 400.057 548.849C402.284 536.658 406.782 525.224 412.757 516.631C416.329 511.499 420.078 507.901 423.495 506.274L425.48 506.962C417.608 509.391 405.658 525.522 401.358 549.101Z" fill="white"/>
<path d="M383.631 321.471L484.218 310.701L584.762 340.008L583.902 353.894C582.535 375.8 564.366 392.849 543.244 392.849H418.071L383.631 321.471Z" fill="#FE5244"/>
<path d="M579.029 339C579.029 358.89 559.935 383.225 538.812 383.225H413.639" stroke="white" stroke-width="6" stroke-miterlimit="10" stroke-linecap="round" stroke-linejoin="round"/>
<path d="M567.1 335.036C563.969 352.795 547.256 371.768 528.956 371.768H408.568" stroke="white" stroke-width="6" stroke-miterlimit="10" stroke-linecap="round" stroke-linejoin="round"/>
<path d="M553.54 330.82C548.249 345.897 533.895 360.081 518.35 360.081H402.174" stroke="white" stroke-width="6" stroke-miterlimit="10" stroke-linecap="round" stroke-linejoin="round"/>
<path d="M543.111 327.864C536.166 338.84 524.766 347.478 512.617 347.478H396.441" stroke="white" stroke-width="6" stroke-miterlimit="10" stroke-linecap="round" stroke-linejoin="round"/>
<path d="M531.469 324.473C524.788 331.461 516.145 336.021 507.105 336.021H390.929" stroke="white" stroke-width="6" stroke-miterlimit="10" stroke-linecap="round" stroke-linejoin="round"/>
<path d="M516.322 319.913C511.603 322.685 506.444 324.335 501.152 324.335H384.976" stroke="white" stroke-width="6" stroke-miterlimit="10" stroke-linecap="round" stroke-linejoin="round"/>
<path d="M417.829 392.849L383.41 321.471" stroke="white" stroke-width="6" stroke-miterlimit="10" stroke-linecap="round" stroke-linejoin="round"/>
<path d="M590.274 244.364C580.793 247.16 571.466 246.335 570.474 243.333C569.548 240.469 573.737 235.565 582.226 232.311C582.645 232.151 583.086 231.991 583.527 231.83C586.085 230.937 588.642 230.364 591.046 230.066C598.168 229.126 603.966 230.455 604.694 232.701C605.686 235.703 600.306 241.408 590.274 244.364Z" fill="white" stroke="#3FB1B5" stroke-width="6" stroke-miterlimit="10" stroke-linejoin="round"/>
<path d="M584.277 311.182H580.638L571.091 244.204V244.158L570.849 242.485C571.312 239.438 575.898 235.13 583.99 232.334C588.025 230.937 592.038 230.318 595.455 230.249L598.939 240.171L599.27 241.111L610.294 272.526C616.909 291.293 603.525 311.182 584.277 311.182Z" fill="#A0505A"/>
<path d="M599.16 240.881C596.844 242.394 593.846 243.791 590.274 244.846C582.072 247.252 573.759 246.266 571.091 244.204V244.158L570.849 242.485C571.312 239.438 575.898 235.13 583.99 232.334C588.025 230.937 592.038 230.318 595.455 230.249L599.16 240.881Z" fill="#73325A"/>
<path d="M466.182 256.073L454.606 285.999C448.896 300.779 435.093 310.472 419.747 310.472H264.147V295.669C264.147 292.095 266.264 288.887 269.483 287.626L285.468 281.325C286.924 280.752 288.445 280.454 289.989 280.454H308.135L410.839 269.685L428.567 227.499L466.182 256.073Z" fill="#A0505A"/>
<path d="M280.904 290.422L268.844 295.165C266.418 296.128 264.809 298.534 264.809 301.237" stroke="#73325A" stroke-width="6" stroke-miterlimit="10" stroke-linecap="round"/>
<path d="M280.904 297.984L268.844 302.727C266.418 303.689 264.809 306.095 264.809 308.799" stroke="#73325A" stroke-width="6" stroke-miterlimit="10" stroke-linecap="round"/>
<path d="M280.904 305.27L268.844 309.784" stroke="#73325A" stroke-width="6" stroke-miterlimit="10" stroke-linecap="round"/>
<path d="M279.648 283.868C279.648 283.868 290.937 253.92 294.553 254.424C298.169 254.928 284.542 281.944 284.542 281.944L279.648 283.868Z" fill="#FE5244"/>
<path d="M428.567 227.523L425.965 233.687L459.281 273.901L466.182 256.074L428.567 227.523Z" fill="#73325A"/>
<path d="M571.091 244.227L584.762 340.008L484.24 310.701L466.182 256.05L419.57 220.648L435.931 200.392C450.527 182.312 472.069 171.864 494.78 171.864H527.081C555.172 171.864 581.035 187.812 594.507 213.43L604.981 232.265C604.981 232.265 601.828 227.453 584.828 232.288C569.857 236.573 571.091 244.227 571.091 244.227Z" fill="#3FB1B5"/>
<path d="M466.182 255.615L471.408 232.059" stroke="white" stroke-width="6" stroke-miterlimit="10" stroke-linecap="round" stroke-linejoin="round"/>
<path d="M582.226 317.644L565.226 207.816" stroke="white" stroke-width="6" stroke-miterlimit="10" stroke-linecap="round" stroke-linejoin="round"/>
<path d="M484.218 310.266L584.541 340.008" stroke="white" stroke-width="6" stroke-miterlimit="10" stroke-linecap="round" stroke-linejoin="round"/>
<path d="M489.642 156.557V171.955L515.792 171.726V144.55L489.642 156.557Z" fill="#A0505A"/>
<path d="M517.909 139.806V140.219C517.909 144.343 514.91 147.689 510.942 147.689H509.398C508.406 151.768 499.586 156.534 493.324 156.534H486.026C478.044 156.534 471.937 149.087 473.238 140.883L473.591 138.661L471.43 137.4C470.195 136.667 469.842 134.994 470.702 133.803L475.377 127.387L476.391 121.063C477.207 115.861 480.492 111.622 484.858 109.537C486.577 129.678 503.687 132.061 508.208 132.336H510.721C514.69 132.336 517.909 135.682 517.909 139.806Z" fill="#A0505A"/>
<path d="M506.333 141.777C506.333 138.523 508.869 135.888 512 135.888" stroke="#73325A" stroke-width="6" stroke-miterlimit="10" stroke-linecap="round"/>
<path d="M482.432 132.543C483.053 132.543 483.557 131.332 483.557 129.839C483.557 128.345 483.053 127.135 482.432 127.135C481.811 127.135 481.308 128.345 481.308 129.839C481.308 131.332 481.811 132.543 482.432 132.543Z" fill="#73325A"/>
<path d="M480.712 121.475C480.712 121.475 483.821 121.154 487.018 125.737" stroke="#73325A" stroke-width="6" stroke-miterlimit="10" stroke-linecap="round"/>
<path d="M508.207 132.336H510.721C514.69 132.336 517.909 135.682 517.909 139.806V140.219C517.909 144.343 514.91 147.689 510.942 147.689L509.244 148.926C502.1 153.693 492.222 172.436 494.647 185.704C497.381 200.621 509.883 203.943 521.437 201.652C532.991 199.361 541.413 192.372 538.679 177.432C538.371 175.667 537.863 173.903 537.224 172.161C537.422 172.23 537.599 172.299 537.797 172.368C551.688 176.309 568.004 176.767 572.502 165.493C577 154.22 575.986 143.06 562.47 137.24C554.621 133.849 543.949 133.872 535.681 136.209C539.848 121.154 532.439 104.404 518.835 102.731C497.47 100.096 485.21 109.262 484.88 109.514C484.858 112.172 486.599 131.03 508.207 132.336Z" fill="#73325A"/>
<path d="M536.232 135.682C534.49 141.571 530.896 147.872 525.053 152.157C525.053 152.157 535.372 159.238 537.797 172.391" stroke="white" stroke-width="6" stroke-miterlimit="10" stroke-linecap="round" stroke-linejoin="round"/>
<path d="M542.229 135.178H536.386V129.105C536.386 125.92 538.856 123.354 541.92 123.354H542.229C545.294 123.354 547.763 125.92 547.763 129.105V129.426C547.786 132.588 545.294 135.178 542.229 135.178Z" stroke="#FE5244" stroke-width="6" stroke-miterlimit="10" stroke-linejoin="round"/>
<path d="M540.09 141.41L536.342 135.224L542.295 131.328C545.272 129.38 549.219 130.297 551.093 133.39L551.446 133.963C553.32 137.057 552.438 141.158 549.461 143.106L548.91 143.473C545.889 145.42 541.965 144.504 540.09 141.41Z" stroke="#FE5244" stroke-width="6" stroke-miterlimit="10" stroke-linejoin="round"/>
<path d="M505.562 152.455L509.729 148.308L513.808 153.097C515.814 155.503 515.55 159.146 513.235 161.208L512.992 161.415C510.677 163.5 507.171 163.225 505.187 160.819L504.988 160.567C502.982 158.184 503.247 154.54 505.562 152.455Z" stroke="#FE5244" stroke-width="6" stroke-miterlimit="10" stroke-linejoin="round"/>
<path d="M511.647 155.434L509.773 148.399L516.542 146.452C519.938 145.466 523.444 147.529 524.392 151.057L524.568 151.722C525.516 155.251 523.532 158.894 520.136 159.879L519.497 160.063C516.101 161.025 512.595 158.94 511.647 155.434Z" stroke="#FE5244" stroke-width="6" stroke-miterlimit="10" stroke-linejoin="round"/>
<path d="M451.475 410.47L413.066 597.29" stroke="#FFCF2D" stroke-width="6" stroke-miterlimit="10" stroke-linecap="round"/>
<path d="M549.77 410.47L588.179 597.29" stroke="#FFCF2D" stroke-width="6" stroke-miterlimit="10" stroke-linecap="round"/>
<path d="M421.577 555.815H579.139" stroke="#FFCF2D" stroke-width="6" stroke-miterlimit="10" stroke-linecap="round"/>
<path d="M579.999 410.47H421.224C419.218 410.47 417.586 408.774 417.586 406.689V396.629C417.586 394.544 419.218 392.849 421.224 392.849H579.999C582.006 392.849 583.637 394.544 583.637 396.629V406.689C583.637 408.774 582.006 410.47 579.999 410.47Z" fill="white" stroke="#66B0F0" stroke-width="6" stroke-miterlimit="10" stroke-linejoin="round"/>
</svg>
